<?xml version="1.0" standalone="no"?>
<svg version="1.1" id="Layer_1" xmlns="http://www.w3.org/2000/svg" xmlns:xlink="http://www.w3.org/1999/xlink" x="0px" y="0px" viewBox="0 0 595.3 595.3" style="enable-background:new 0 0 595.3 595.3;" xml:space="preserve">
<style type="text/css">
	.st0{fill:#EF9521;}
	.st1{fill:#523C35;}
	.st2{fill:#A14423;}
	.st3{fill:#7DA99F;}
	.st4{fill:#F4F7DB;}
	.st5{fill:#D87C29;}
	.st6{fill:#80C0B7;}
	.st7{fill:#BCE2D3;}
</style>
<path id="color_x5F_8_17_" class="st0" d="M593.9,326c-1.3,14.1-3.8,28.6-7,42h-55.1c0,0,0,0,0,0h0c0-0.3,0-0.9,0-1.2
	c0-5.4-3.5-9.9-7.7-10c-4.9-0.2-8.2,4.9-8.2,10.2c0,0.3,0,0.8,0,1.1h0c0,0,0,0,0,0h-15.4c1.4-3.4,2.3-7.3,2.3-11.3c0-0.5,0-1,0-1.5
	c2.7,0,5.5,0.4,8.2,1.1c8.6-11.1,18.7-8.9,22.9-9.1s8.6-0.9,11.7-3.5c2.2-1.8,3.6-4.4,6-6.1c4.2-3,10.2-2.2,15.5-1.3
	s11.1,2,15.6-0.6C587,333.2,589,327.6,593.9,326z M73.7,297.1l-20.8-27.3h-3.3v-5.6h-3v7.6l-1.4-2h-10l20.1,27.3L73.7,297.1
	L73.7,297.1z M190.4,275.2l23.1,24.4l12.5-13.7L215.1,275L190.4,275.2z M377.4,157.2l-2.9,88.3h21L377.4,157.2z M114.4,240.2
	l-1.7,44.1h12.1L114.4,240.2z M390.9,278.2l26,24.8h30.9l-27.4-24.8H390.9z M447.9,315.1L447.9,315.1h-22.4l19.8,15.1h23.2
	L447.9,315.1z M312.5,255.6l11.8,11.8H339l-11.1-11.8L312.5,255.6L312.5,255.6z M372.1,313.1l27.2,32.9h21.2l-26.5-32.9H372.1z
	 M84.2,313.1H63.7L89.2,344h19.9L84.2,313.1z"></path>
<path id="color_x5F_7_16_" class="st1" d="M534.9,400.1H382.4c-0.2-4-2.9-7.1-6.7-9.1h43.1v-9.3l57.3-0.3c0-0.2,0.1-0.3,0.1-0.5
	c0.9,0.3,1.8,0.5,2.8,0.6c1.8,0.2,3.6,0.2,5.3-0.1C504.6,389.7,521.6,396.8,534.9,400.1z M332,376.9c0,1.4-0.2,2.7-0.7,4
	c1.3,0.2,2.6,0.3,3.8,0.3c2,0.1,5.6-0.5,9.7,0.5v-9.3l-13.8,0.1C331.7,374.3,332,375.8,332,376.9z M372.1,313.1l-0.7,0.9v-9.3h-3
	v9.5h2.9l-10.9,13.1h-2.1v2.6l-10.4,12.6c-2.9-0.4-5.9-0.7-8.9-1v17c1.6-0.4,3.2-1.4,4.9-1.1c0.4,0.1,0.7,0.2,1,0.3v-9.4l28.2-34
	L372.1,313.1z M269.2,366.2c0.8-0.7,1.6-1.4,2.5-2.1c1.3-2.9,2.8-5.8,4.1-8.3l-11.6,0.1C265.8,359,267.6,362.7,269.2,366.2z
	 M252.2,363.1c1.2-2.5,2.5-5,3.6-7.2l-6.9,0C250.1,358.4,251.3,360.8,252.2,363.1z M126.1,319.8v22.5c2.3-1.9,5.1-3,8.3-2.9
	c0.4,0,0.9,0.1,1.3,0.1v-19.9C132.5,319.9,129.3,319.9,126.1,319.8z M72.5,302.3v10.8h11.8l19.6,24.4v-20.6c-9-2.3-17.7-6-26.3-11.4
	C76,304.5,74.3,303.4,72.5,302.3z M35.2,269.7L25.5,283c-1.8-0.4-3.7-0.7-5.6-0.9c-6.5-0.8-13.1-0.9-19.6,0.2
	C0.1,287.3,0,292.5,0,297.6c0,5,0.1,10,0.4,15c1.8-0.9,3.8-1.3,6-1.2c2.3,0.1,4.5,0.8,6.5,2.1l4-4v-12.1v-1.7l18.8-25.5L35.2,269.7z
	 M46.6,271.8v-7.6h-2.8v5.6h1.4L46.6,271.8z M23.6,318.5h5v-13.9h-5V318.5z M33.2,318.5h5v-13.9h-5V318.5z M47.8,304.5h-5v13.9h5
	V304.5z M23.6,331.5c1.4-1.9,3.1-3.4,5-4.5v-2.4h-5V331.5z M33.2,324.7v0.9c0.8-0.1,1.5-0.2,2.3-0.1c0.9,0,1.8,0.2,2.7,0.4v-1.1
	h-1.1H33.2z M36,285.8c-0.2,0-0.4,0-0.6,0.1c-1.8,0.3-3.2,1.8-3.2,3.7s1.4,3.4,3.2,3.7c0.2,0,0.4,0.1,0.6,0.1c2.1,0,3.7-1.7,3.7-3.7
	S38,285.8,36,285.8z M194.6,292.4c0-1.7-1.4-3.1-3.1-3.1c-0.1,0-0.3,0-0.4,0c-1.5,0.2-2.7,1.5-2.7,3v7.8h6.2L194.6,292.4
	L194.6,292.4z M180.3,286.3h-31.4l-15.4,13.2h34.9L180.3,286.3z M271.4,287L271.4,287l10.3,12.5h1.9l-11.1-13.7H226l-12.5,13.7
	l46.2,0L271.4,287L271.4,287z M148.8,310.9H143v14h5.8V310.9z M143,342h5.8v-14H143V342z M165.7,310.9H160v14h5.8V310.9z M160,342
	h5.8v-14H160V342z M182.7,310.9h-5.8v14h5.8V310.9z M176.9,342h5.8v-14h-5.8V342z M199.6,310.9h-5.8v14h5.8V310.9z M193.8,342h5.8
	v-14h-5.8V342z M216.5,310.9h-5.8v14h5.8V310.9z M216.5,327.9h-5.8v14h5.8V327.9z M233.4,310.9h-5.8v14h5.8V310.9z M227.7,342h5.8
	v-14h-5.8V342z M250.4,310.9h-5.8v14h5.8V310.9z M244.6,342h5.8v-14h-5.8V342z M379.6,298.3v-2.7h-6h-15.3v2.7H379.6z M398.5,247.5
	v-2h-24l2.9-88.3c-0.4,0.4-17.3,88.3-17.3,88.3h-2.6v2H398.5z M367.2,266.4v-7.5h-2.5v7.5H367.2z M382.5,258.9h-2.5v7.5h2.5V258.9z
	 M391.3,266.4v-7.5h-2.5v7.5H391.3z M380.1,276.1v7.5h2.5v-7.5H380.1z M388.9,280.1l2-1.9h0.4v-2h-2.5V280.1z M364.7,283.6h2.5v-7.5
	h-2.5V283.6z M358.3,314.1h3v-9.5h-3V314.1z M126.6,284.3h-13.8l1.7-44.1c-0.2,0.2-9.9,44.1-9.9,44.1H103v1.2h23.5L126.6,284.3
	L126.6,284.3z M107.1,295.7h1.4v-4.3h-1.4V295.7z M107.1,307.7h1.4v-4.3h-1.4V307.7z M107.1,319.8h1.4v-4.3h-1.4V319.8z
	 M107.1,331.8h1.4v-4.3h-1.4V331.8z M107.1,341.6l1.4,1.8v-3.8h-1.4V341.6z M107.5,355.9C107.5,355.9,107.5,355.9,107.5,355.9
	c0.4-0.1,0.8-0.2,1.1-0.3v-4h-1.1V355.9z M116,295.7h1.4v-4.3H116V295.7z M121,295.7h1.4v-4.3H121V295.7z M116,307.7h1.4v-4.3H116
	V307.7z M121,307.7h1.4v-4.3H121V307.7z M116,319.8h1.4v-4.3H116V319.8z M121,319.8h1.4v-4.3H121V319.8z M116,331.8h1.4v-4.3H116
	V331.8z M121,331.8h1.4v-4.3H121V331.8z M116,343.8h1.4v-4.3H116V343.8z M121,343.8h1.4v-4.3H121V343.8z M116,355.9h1.4v-4.3H116
	V355.9z M447.8,315.1v-12.2h-30.9v18.5l8.6-6.4L447.8,315.1L447.8,315.1z M392.5,304.8h-4.1v8.3h4.1V304.8z M404.9,314.5v-9.7h-4.1
	v9.7H404.9z M423.8,327.8h-4.1v9.7h4.1V327.8z M436.2,327.8h-4.1v9.7h4.1V327.8z M419.7,350.9v9.7h4.1v-9.7H419.7z M432.2,350.9v9.7
	h4.1v-9.7H432.2z M454.1,360.6v-9.7H450v9.7H454.1z M464.2,360.6v-9.7h-4.1v9.7H464.2z M277,329.6l23.8-28.8v-2.4l-26,31.3
	L277,329.6L277,329.6z M305.6,282v7.8h3.4V282H305.6z M315.6,282v7.8h3.4V282H315.6z M305.6,303.3v7.8h3.4v-7.8H305.6z M315.6,303.3
	v7.8h3.4v-7.8H315.6z M305.6,324.6v7.8h3.4v-7.8H305.6z M315.6,324.6v7.8h3.4v-7.8H315.6z M305.6,346v7.8h3.4V346H305.6z M315.6,346
	v7.8h0.9c1.1-2,2-3.6,2.5-4.6V346H315.6z M333.6,289.7V282h-3.4v7.8H333.6z M333.6,311.1v-7.8h-3.4v7.8H333.6z M333.6,332.4v-7.8
	h-3.4v7.8H333.6z M333.6,346h-3.4v7.8h3.4V346z M295.1,324.6v7.8h3.4v-7.8H295.1z M295.1,346v7.8h1.6c0.7-1.3,1.4-2.5,1.9-3.4V346
	H295.1z M284.3,346v7.8h3.4V346H284.3z M312.5,255.6l-12.7,12.6h0.9l12.2-12.2L312.5,255.6z M312.5,267c-0.1,0-0.2,0-0.3,0
	c-0.8,0.1-1.4,0.8-1.4,1.7v5.2c0,0.4,0.3,0.6,0.6,0.6h2.2c0.4,0,0.6-0.3,0.6-0.6v-5.2C314.3,267.8,313.5,267,312.5,267z
	 M370.8,332.4c-0.1,0-0.2,0-0.3,0c-2.6,0.2-4.8,2.3-4.8,5s2.1,4.9,4.8,5c0.1,0,0.2,0,0.3,0c2.8,0,5-2.3,5-5
	C375.8,334.7,373.6,332.4,370.8,332.4z M352.1,353.2v10.1h5.4v-10.1H352.1z M368.6,353.2v10.1h5.4v-10.1H368.6z M390.4,353.2h-5.4
	v10.1h5.4V353.2z M352.1,369.6v10.1h5.4v-10.1H352.1z M368.6,369.6v10.1h5.4v-10.1H368.6z M385.1,369.6v10.1h5.4v-10.1H385.1z
	 M63.7,313.1l-15.9,19.2v-7.6h-5v3.3c1.8,1.3,3.3,2.9,4.6,4.9l-4.6,5.6c0.6-0.1,1.3-0.2,2-0.2l19.9-24L63.7,313.1z M60.3,353.2
	c0.3,1.4,0.4,2.9,0.5,4.4c0,0.9,0,1.8,0.1,2.5h4.5v-9.5h-5C60.3,350.7,60.3,353.2,60.3,353.2z M75.8,360.2h5v-9.5h-5V360.2z
	 M63.7,370.7c0.6,0,1.1,0,1.7,0v-4.6h-3.4C62.4,367.8,63.1,369.3,63.7,370.7z M75.8,375.5h5v-9.5h-5V375.5z M95.7,360.2h5v-9.5h-5
	V360.2z M95.7,375.5h2c0.8-2,1.1-4.2,1.1-6.4c0-1,0.1-2,0.3-3h-3.4L95.7,375.5L95.7,375.5z M156.6,345l-6.9,6.9h-1.8
	c0.1,0.5,0.3,1,0.4,1.5l-12.4,12.4h64.4l19.6-19.5l0,0l17.5,19.5h2.5L221.1,345L156.6,345L156.6,345z M207.9,369.4v6.8h2.8v-6.8
	H207.9z M218.6,369.4v6.8h2.8v-6.8H218.6z M229.2,369.4v6.8h2.8v-6.8H229.2z M207.9,383.2v6.8h2.8v-6.8H207.9z M193.1,369.4v6.8h2.8
	v-6.8H193.1z M193.1,383.2v6.8h2.8v-6.8H193.1z M182.6,369.4v6.8h2.8v-6.8H182.6z M182.6,383.2v6.8h2.8v-6.8H182.6z M172.2,369.4
	v6.8h2.8v-6.8H172.2z M172.2,383.2v6.8h2.8v-6.8H172.2z M161.8,369.4v6.8h2.8v-6.8H161.8z M161.8,383.2v6.8h2.8v-6.8H161.8z
	 M151.4,369.4v6.8h2.8v-6.8H151.4z M151.4,383.2v6.8h2.8v-6.8H151.4z M140.9,369.4v6.8h2.8v-6.8H140.9z M140.9,383.2v6.8h2.8v-6.8
	H140.9z M218.6,383.2v6.8h2.8v-6.8H218.6z M229.2,383.2v6.8h2.8v-6.8H229.2z"></path>
<path id="color_x5F_6_19_" class="st2" d="M34.9,346.4c0,0,20.4,35.4,20.4,46.7c0,5.9-2.5,11.3-6.6,15c-3.6,3.4-8.5,5.4-13.8,5.4
	c-2.6,0-6.7,0-11.5,0c-9.4-22.3-16.3-46-20-70.8c3.4,6.6,7.3,14.3,10.5,21.6c1,2.2,1.9,4.4,2.7,6.4c0.9,2.4,1.8,4.6,2.4,6.7
	c2.1-4.9,4.6-10.1,7-14.8c1.4-2.8,2.8-5.3,4-7.6C32.8,350,34.9,346.4,34.9,346.4z M253.1,400.1h129.3c-0.2-4-2.9-7.1-6.7-9.1
	c-5.2-2.7-12.6-3.4-19.7-1.6c-3.6-4.7-7.5-6.8-11.1-7.7c-4.1-1-7.7-0.5-9.7-0.5c-1.3,0-2.6-0.1-3.8-0.3c-2.5-0.4-5-1.2-6.8-2.8
	c-2-1.7-3.2-4-5.4-5.5c-3.8-2.7-9.3-2-14-1.1c-4.8,0.9-10.1,1.8-14.2-0.6c-4.2-2.4-6-7.8-10.8-9c-3-0.8-6,0.4-8.6,2.3
	c-0.9,0.6-1.7,1.3-2.5,2.1c-0.4,0.4-0.8,0.8-1.1,1.1c-3.1,3.3-6.8,7-11.6,6.8c-3.9-0.2-7.5-3-11.4-2.4c-3.4,0.5-5.5,3.5-7,6.3
	c-0.2,0.4-0.4,0.8-0.7,1.3v15h15.8L253.1,400.1L253.1,400.1z M255.9,355.9c2.3-4.4,4.1-7.6,4.1-7.6s1.8,3.2,4.1,7.5l11.6-0.1
	c0.4-0.8,0.8-1.6,1.2-2.3v-18.5c-0.6-0.1-1.3-0.1-1.9,0c-2.6,0.7-3.6,3.6-5.9,4.9c-2.2,1.3-5.2,0.8-7.8,0.3
	c-0.7-0.1-1.5-0.3-2.2-0.3c-2-0.2-3.9-0.1-5.5,1c-1.2,0.8-1.9,2.1-3,3c-1.5,1.3-3.8,1.7-5.9,1.7c-0.3,0-0.7,0-1.1,0
	c1.6,2.9,3.4,6.5,5.2,10.2L255.9,355.9z M235.4,348.2c-0.7,0.6-1.4,1.2-2,2.1c-1.3-0.3-2.6-0.5-3.8-0.5c0.8,1.7,1.6,3.4,2.4,5.1
	C233.2,352.5,234.4,350.2,235.4,348.2z M314.5,357.6c-1.2-0.1-2.4-0.3-3.6-0.5c-2.1-0.4-4.5-0.7-6.5,0c1.8,3.4,3.7,7.3,5.2,10.9
	C311,364.6,312.8,360.9,314.5,357.6z M292.3,362.4c-1.3,0-2.9,0.1-4.6,0.8c0.8,1.6,1.5,3.2,2.1,4.8
	C290.5,366.2,291.4,364.3,292.3,362.4z M344.9,372.4v-14.8c-0.3-0.2-0.7-0.3-1-0.3c-1.7-0.3-3.2,0.7-4.9,1.1
	c-0.5,0.1-0.9,0.2-1.4,0.2c-2.6,0.1-4.7-2-6.4-3.8s-4.1-3.7-6.7-3c-0.1,0-0.2,0.1-0.4,0.1c-0.8,0.3-1.4,0.7-2,1.3
	c2.8,5.2,7,13.5,8.9,19.2L344.9,372.4z M476.3,381c0.2-0.8,0.1-1.6-0.1-2.3c9,0,16.3-7.1,16.3-15.8c0-8.1-4.7-8.1-4.8-15.9
	c-0.1-5.9-5.1-10.9-11.2-11c-3.2-0.1-6,1-8,2.8v32.8h-4.6c-0.3-0.6-0.6-1.2-0.9-1.7c-0.8-1.5-2-3.2-3.8-3.4
	c-2.1-0.3-4.1,1.3-6.2,1.3c-2.6,0.1-4.7-2-6.4-3.8c-0.4-0.4-0.8-0.8-1.2-1.2c-1.6-1.3-3.5-2.4-5.5-1.9c-2.6,0.7-3.6,3.6-5.9,4.9
	c-2.2,1.3-5.2,0.8-7.8,0.3c-2.4-0.5-5.2-0.8-7.2,0.4v15.2l57.3-0.3C476.2,381.3,476.2,381.1,476.3,381z M277.6,586.6
	c1.9,2.7,3.7,5.5,5.2,8.4c-42.8-2.1-83.3-13.3-119.5-31.6C201.3,539.9,251.4,549.7,277.6,586.6z M244.4,577.9
	c-2.5-2.3-6.1-4-9.6-3.8c-3.5,0.2-6.8,2.3-9.1,4.9C231.4,584.1,239.3,583.7,244.4,577.9z M64.5,482.7c20.6,25.9,45.5,48.4,73.5,66.2
	c-2.4-10.8-6.9-21.3-13.8-30.9C109.7,497.5,87.7,485.4,64.5,482.7z M565,428.6c-45.6,92.9-138.2,158.6-246.8,166
	c2.8-6.5,6.2-12.7,10.4-18.7c0,0,0,0,0,0c5.3-7.6,11.5-14.2,18.3-19.8c21-17.3,47.9-25.1,74.4-22.4c20.6-27,52.5-40.8,84.4-39.5
	c3-10.5,7.8-20.7,14.5-30.2C531.9,447.5,547.5,435.6,565,428.6z M419.5,555.5c-2.4-3-5.8-5.7-9.6-6.6c-3.9-0.8-8,0.2-11.4,2
	C403.7,557.7,411.9,559.4,419.5,555.5z M465.6,516.1c-3,1.5-5.9,4.1-7,7.4s-0.3,7.2,1.3,10.1C466.8,530.3,469.2,522.8,465.6,516.1z
	 M354.3,443.8c-7.5,12.3,13.4,23.7,19.3,10.8c0.8-1.8-7-1.8-9.1-2.7C360.4,450.4,356.7,447.7,354.3,443.8z M336.2,528.2
	c-7.3-6.3-18.8-0.7-18.6,8.8c7-2.1,13.4-4.4,20.3-6.9C337.3,529.4,336.8,528.8,336.2,528.2z M162.2,461.6c-2.3-3-3-7.1-2-10.7
	c0.3-1.3,0.9-2.5,1.6-3.6c-4.8-1.3-7.7,0.6-9,3.6c-0.3,0.8-0.6,1.6-0.7,2.5c-0.2,1.4-0.2,2.9,0.1,4.4c1.1,6.1,6,11.5,12.9,6.4
	C164,463.5,163,462.6,162.2,461.6z M454.6,489.6c2.8-0.4,5.3-1.8,7.1-4c4.1-5.2,2.4-12.9-3.1-16.3
	C456.1,476.1,454.9,482.3,454.6,489.6z M494.6,467.2c0.9,1.2,9.3,7,8.7,3.6c-1.2-7.2-3.3-12-8.1-17.6
	C491.8,457.3,491.4,462.8,494.6,467.2z M198.9,541.5c0,0-11.6-14.6-15.8-7.1C178.8,542.2,198.9,541.5,198.9,541.5z M267.9,555.7
	c4,11.5,22.9,6.3,20.9-5.7C283,553.3,274.5,555.7,267.9,555.7z M136.7,361.8c-2.6,1-3.6,5.6-6,7.6c-2.3,2-5.2,1.2-7.8,0.5
	s-5.6-1.3-7.8,1c-1.2,1.3-1.9,3.3-3,4.7c-1,1.3-2.4,2-3.8,2.4c-0.7,0.2-1.4,0.3-2.1,0.3c-1.1,0-3.1-0.4-5.4,0.5
	c-2,0.8-4.1,2.5-6.1,6.5c-3.9-1.5-8-0.9-10.9,1.4c-2.1,1.7-3.6,4.3-3.7,7.7h55.7v-28.5l3.6-3.6C138.6,361.6,137.7,361.5,136.7,361.8
	z"></path>
<path id="color_x5F_5_18_" class="st3" d="M47.8,324.7v7.6l7.6-9.1v-26.1l-19.7-26.8l-18.8,25.5v13.7l-4,4c5.2,3.3,8.9,10.2,9,18
	c0,1,0,1.9,0.1,2.8c0.2-0.4,0.4-0.7,0.6-1v-8.5h6.1v2.4c1.1-0.6,2.2-1.1,3.4-1.3v-1.1h1.1h3.9h1.1v1.1c1.2,0.3,2.3,0.8,3.4,1.4v-2.6
	L47.8,324.7L47.8,324.7z M28.7,318.5h-6.1v-13.9h6.1V318.5z M38.2,318.5h-6.1v-13.9h6.1V318.5z M36,293.2c-0.2,0-0.4,0-0.6-0.1
	c-0.2,0-0.4,0.1-0.6,0.1c-2.1,0-3.7-1.7-3.7-3.7c0-2.1,1.7-3.7,3.7-3.7c0.2,0,0.4,0,0.6,0.1c0.2,0,0.4-0.1,0.6-0.1
	c2.1,0,3.7,1.7,3.7,3.7C39.7,291.6,38,293.2,36,293.2z M41.6,318.5v-13.9h6.1v13.9H41.6z M190.4,275.2l-22.1,24.4h-32.5v40.1
	c5.5,0.9,10.2,5.8,12.1,12.3h1.8l6.9-6.9H215c3.3-6.4,6.2-11.4,6.2-11.4s4.4,7.7,8.5,16.1c1.3,0,2.5,0.2,3.8,0.5
	c0.7-0.9,1.3-1.5,2-2.1c2.7-5.1,4.8-8.8,4.8-8.8s1.5,2.6,3.5,6.3c0.4,0,0.8,0,1.1,0c2.1-0.1,4.3-0.4,5.9-1.7c1.1-0.9,1.8-2.2,3-3
	c1.5-1.1,3.5-1.2,5.5-1v-40.5h-45.6L190.4,275.2z M148.8,342h-6.5v-14h6.5V342z M148.8,324.9h-6.5v-14h6.5V324.9z M165.7,342h-6.5
	v-14h6.5V342z M165.7,324.9h-6.5v-14h6.5V324.9z M243.8,310.9h6.5v14h-6.5V310.9z M243.8,327.9h6.5v14h-6.5V327.9z M226.9,310.9h6.5
	v14h-6.5V310.9z M226.9,327.9h6.5v14h-6.5V327.9z M182.7,342h-6.5v-14h6.5V342z M182.7,324.9h-6.5v-14h6.5V324.9z M187.6,300.2v-7.8
	c0-1.7,1.4-3.1,3.1-3.1c0.1,0,0.3,0,0.4,0c0.1,0,0.3,0,0.4,0c1.7,0,3.1,1.4,3.1,3.1v7.8H187.6z M199.6,342H193v-14h6.5V342z
	 M199.6,324.9H193v-14h6.5V324.9z M216.5,342H210v-14h6.5V342z M216.5,310.9v14H210v-14H216.5z M373.6,247.5H359v48.1h14.6V247.5z
	 M367.2,283.6H364v-7.5h3.2V283.6z M367.2,266.4H364v-7.5h3.2V266.4z M383,266.4h-0.5v-7.5h0.5V266.4z M391.8,266.4h-0.5v-7.5h0.5
	V266.4z M383,283.6h-0.5v-7.5h0.5V283.6z M391.8,278.2h-0.5v-2h0.5V278.2z M103.8,337.5l2.8,3.5v-1.5h1.9v3.8l0.5,0.6h-1.6v7.6h1.1
	v4c0.9-0.2,1.9-0.3,2.9-0.3c0.3,0,0.5,0,0.8,0.1v-69.9h-8.4L103.8,337.5L103.8,337.5z M106.7,291.4h1.9v4.3h-1.9V291.4z
	 M106.7,303.4h1.9v4.3h-1.9V303.4z M106.7,315.4h1.9v4.3h-1.9V315.4z M106.7,327.5h1.9v4.3h-1.9V327.5z M117.4,291.4h0.4v4.3h-0.4
	V291.4z M122.5,291.4h0.4v4.3h-0.4V291.4z M117.4,303.4h0.4v4.3h-0.4V303.4z M122.5,303.4h0.4v4.3h-0.4V303.4z M117.4,315.4h0.4v4.3
	h-0.4V315.4z M122.5,315.4h0.4v4.3h-0.4V315.4z M117.4,327.5h0.4v4.3h-0.4V327.5z M122.5,327.5h0.4v4.3h-0.4V327.5z M117.4,339.5
	h0.4v4.3h-0.4V339.5z M122.5,339.5h0.4v4.3h-0.4V339.5z M117.4,351.5h0.4v4.3h-0.4V351.5z M416.9,321.4v-18.5l-26-24.8l-11.3,10.5
	v9.7H359l-8.3,8.5v32.2l7-8.4v-3.4h0.7h2.1l10.9-13.1h-3.6v-9.5h3.7v9.3l0.7-0.9h15.6v-8.3h4.8v8.3h1.6l26.5,32.9h-1.7v20.5
	c2.1-1.1,4.8-0.8,7.2-0.4c2.6,0.5,5.5,1,7.8-0.3c2.3-1.3,3.3-4.3,5.9-4.9c2-0.5,3.9,0.5,5.5,1.9v-32.7l-19.8-15.1L416.9,321.4z
	 M361.3,314.1h-3.7v-9.5h3.7V314.1z M404.9,314.5h-4.8v-9.7h4.8V314.5z M423.8,360.6h-4.8v-9.7h4.8V360.6z M423.8,337.5h-4.8v-9.7
	h4.8V337.5z M431.5,327.8h4.8v9.7h-4.8V327.8z M431.5,350.9h4.8v9.7h-4.8V350.9z M454.1,350.9h0.9v9.7h-0.9V350.9z M465,350.9v9.7
	h-0.9v-9.7H465z M300.8,268.2v32.6L277,329.6v23.9c1.7-3.1,2.9-5.2,2.9-5.2s4.3,7.4,7.8,14.9c1.7-0.7,3.3-0.8,4.6-0.8
	c1.5-3.2,3.1-6.2,4.4-8.7h-2.2V346h4v4.4c0.7-1.2,1.1-2,1.1-2s0.4,0.7,1.1,1.9c0.9,1.6,2.2,4.1,3.7,6.9c1.9-0.7,4.3-0.4,6.5,0
	c1.2,0.2,2.4,0.4,3.6,0.5c0.7-1.4,1.4-2.7,2-3.9H315V346h4v3.2c0.3-0.5,0.5-0.8,0.5-0.8s1.1,2,2.7,4.9c0.6-0.6,1.2-1,2-1.3l0.1-84.6
	L313,256.1L300.8,268.2z M287.7,353.7h-4V346h4V353.7z M298.6,332.4h-4v-7.8h4V332.4z M315.1,282h4v7.8h-4V282z M315.1,303.3h4v7.8
	h-4V303.3z M315.1,324.6h4v7.8h-4V324.6z M309,353.7h-4V346h4V353.7z M309,332.4h-4v-7.8h4V332.4z M309,311.1h-4v-7.8h4V311.1z
	 M309,289.7h-4V282h4V289.7z M314.3,268.7v5.2c0,0.4-0.3,0.6-0.6,0.6h-2.8c-0.4,0-0.6-0.3-0.6-0.6v-5.2c0-1,0.8-1.7,1.7-1.7
	c0.1,0,0.2,0,0.3,0c0.1,0,0.2,0,0.3,0C313.5,267,314.3,267.8,314.3,268.7z M333.6,282h0.9v7.8h-0.9V282z M333.6,303.3h0.9v7.8h-0.9
	V303.3z M333.6,324.6h0.9v7.8h-0.9V324.6z M333.6,346h0.9v7.8h-0.9V346z M344.9,348.2v33.6c3.5,0.9,7.5,3,11.1,7.7
	c7.1-1.8,14.5-1,19.7,1.6h23.7V346l-26.3-31.8L344.9,348.2z M357.4,379.7h-5.9v-10.1h5.9V379.7z M357.4,363.3h-5.9v-10.1h5.9V363.3z
	 M373.9,379.7H368v-10.1h5.9V379.7z M373.9,363.3H368v-10.1h5.9V363.3z M384.5,353.2h5.9v10.1h-5.9V353.2z M384.5,369.6h5.9v10.1
	h-5.9V369.6z M375.8,337.5c0,2.8-2.3,5-5,5c-0.1,0-0.2,0-0.3,0c-0.1,0-0.2,0-0.3,0c-2.8,0-5-2.3-5-5c0-2.8,2.3-5,5-5
	c0.1,0,0.2,0,0.3,0c0.1,0,0.2,0,0.3,0C373.6,332.4,375.8,334.7,375.8,337.5z M44.7,338.2c0.4,0,0.7,0,1.1,0
	c6.3,0.2,11.7,5.5,13.9,12.6h5.7v9.5h-4.5c0.2,2.4,0.5,4.3,1,5.9h3.4v4.6c2.2,0.1,4.2,0.7,6,1.9c2.2,1.5,3.4,3.9,5.4,5.5
	c2.8,2.3,6.8,3,10.7,3.1c0.5,0,1.1,0,1.8,0V344l-24.6-29.8L44.7,338.2z M75.1,350.7h5.7v9.5h-5.7V350.7z M75.1,366.1h5.7v9.5h-5.7
	V366.1z M100.7,350.7h0.7v9.5h-0.7V350.7z M135.9,394.3h64.4v-28.5h-64.4V394.3z M192.5,369.4h3.4v6.8h-3.4V369.4z M192.5,383.2h3.4
	v6.8h-3.4V383.2z M182,369.4h3.4v6.8H182V369.4z M182,383.2h3.4v6.8H182V383.2z M171.6,369.4h3.4v6.8h-3.4V369.4z M171.6,383.2h3.4
	v6.8h-3.4V383.2z M161.2,369.4h3.4v6.8h-3.4V369.4z M161.2,383.2h3.4v6.8h-3.4V383.2z M150.8,369.4h3.4v6.8h-3.4V369.4z
	 M150.8,383.2h3.4v6.8h-3.4V383.2z M140.3,369.4h3.4v6.8h-3.4V369.4z M140.3,383.2h3.4v6.8h-3.4V383.2z M210.7,369.4h0.5v6.8h-0.5
	V369.4z M221.3,369.4h0.5v6.8h-0.5V369.4z M231.9,369.4h0.5v6.8h-0.5V369.4z M210.7,383.2h0.5v6.8h-0.5V383.2z M221.3,383.2h0.5v6.8
	h-0.5V383.2z M231.9,383.2h0.5v6.8h-0.5V383.2z"></path>
<path id="color_x5F_4_18_" class="st4" d="M55.3,297.1h17.1v16h-8.8l-8.4,10.1V297.1z M22.5,318.5h1.1v-13.9h-1.1V318.5z
	 M32.1,318.5h1.1v-13.9h-1.1V318.5z M41.6,318.5h1.1v-13.9h-1.1V318.5z M22.5,333.1c0.3-0.6,0.7-1.1,1.1-1.6v-6.9h-1.1V333.1z
	 M32.1,325.7c0.4-0.1,0.7-0.1,1.1-0.2v-0.9h-1.1V325.7z M41.6,327.2c0.4,0.2,0.7,0.5,1.1,0.7v-3.3h-1.1V327.2z M35.4,285.9
	c-0.2,0-0.4-0.1-0.6-0.1c-2.1,0-3.7,1.7-3.7,3.7c0,2.1,1.7,3.7,3.7,3.7c0.2,0,0.4,0,0.6-0.1c-1.8-0.3-3.2-1.8-3.2-3.7
	S33.6,286.1,35.4,285.9z M187.6,292.4v7.8h0.8v-7.8c0-1.6,1.2-2.8,2.7-3c-0.1,0-0.3,0-0.4,0C189,289.3,187.6,290.7,187.6,292.4z
	 M281.8,321.2v-21.6L271.4,287l-11.7,12.5h-0.6l0,0v40.5c0.8,0.1,1.5,0.2,2.2,0.3c2.6,0.5,5.5,1,7.8-0.3c2.3-1.3,3.3-4.3,5.9-4.9
	c0.6-0.2,1.3-0.2,1.9,0v-5.5h-2.2L281.8,321.2z M143,310.9h-0.8v14h0.8V310.9z M142.3,342h0.8v-14h-0.8V342z M159.2,324.9h0.8v-14
	h-0.8V324.9z M159.2,342h0.8v-14h-0.8V342z M176.1,324.9h0.8v-14h-0.8V324.9z M176.1,342h0.8v-14h-0.8V342z M193.8,310.9H193v14h0.8
	V310.9z M193.8,327.9H193v14h0.8V327.9z M210.7,310.9H210v14h0.8V310.9z M210,342h0.8v-14H210V342z M227.7,310.9h-0.8v14h0.8V310.9z
	 M226.9,342h0.8v-14h-0.8V342z M244.6,310.9h-0.8v14h0.8V310.9z M243.8,342h0.8v-14h-0.8V342z M391.8,278.2v-2h-3v3.9l-9.2,8.6v7h-6
	v-48.1h24.1v30.7L391.8,278.2L391.8,278.2z M383,276.1h-3v7.5h3V276.1z M383,258.9h-3v7.5h3V258.9z M391.8,266.4v-7.5h-3v7.5H391.8z
	 M364.7,258.9H364v7.5h0.7V258.9z M364,283.6h0.7v-7.5H364V283.6z M358.3,304.6h-0.7v9.5h0.7V304.6z M367.7,304.6v9.5h0.7v-9.5
	H367.7z M357.6,330.7l0.7-0.9v-2.6h-0.7V330.7z M126.1,342.4c-4.4,3.5-7,9.7-7,16.1c0,0.1,0,0.1,0,0.2c-1.9-1.8-4.3-3-6.9-3.3v-69.9
	h13.9V342.4z M117.8,351.5H116v4.3h1.8V351.5z M117.8,339.5H116v4.3h1.8V339.5z M117.8,327.5H116v4.3h1.8V327.5z M117.8,315.4H116
	v4.3h1.8V315.4z M117.8,303.4H116v4.3h1.8V303.4z M117.8,291.4H116v4.3h1.8V291.4z M122.9,339.5H121v4.3h1.8V339.5z M122.9,327.5
	H121v4.3h1.8V327.5z M122.9,315.4H121v4.3h1.8V315.4z M122.9,303.4H121v4.3h1.8V303.4z M122.9,291.4H121v4.3h1.8V291.4z
	 M107.1,291.4h-0.5v4.3h0.5V291.4z M107.1,303.4h-0.5v4.3h0.5V303.4z M107.1,315.4h-0.5v4.3h0.5V315.4z M107.1,327.5h-0.5v4.3h0.5
	V327.5z M106.7,341l0.5,0.6v-2.1h-0.5V341z M446.4,364c-0.4-0.4-0.8-0.8-1.2-1.2v-32.7h23.2v8.6v32.8h-4.6c-0.3-0.6-0.6-1.2-0.9-1.7
	c-0.8-1.5-2-3.2-3.8-3.4c-2.1-0.3-4.1,1.3-6.2,1.3C450.2,367.8,448.1,365.8,446.4,364z M460.1,360.6h5v-9.7h-5V360.6z M450,360.6
	h4.9v-9.7H450V360.6z M388.4,313.1v-8.3h-0.7v8.3H388.4z M400.1,304.8v9.7h0.7v-9.7H400.1z M419.7,327.8h-0.7v9.7h0.7V327.8z
	 M432.2,327.8h-0.7v9.7h0.7V327.8z M419.1,360.6h0.7v-9.7h-0.7V360.6z M431.5,360.6h0.7v-9.7h-0.7V360.6z M324.2,352l0.1-84.6H339
	v91c-0.5,0.1-0.9,0.2-1.4,0.2c-2.6,0.1-4.7-2-6.4-3.8s-4.1-3.7-6.7-3C324.4,351.9,324.3,351.9,324.2,352z M330.1,289.7h4.3V282h-4.3
	V289.7z M330.1,311.1h4.3v-7.8h-4.3V311.1z M330.1,332.4h4.3v-7.8h-4.3V332.4z M330.1,353.7h4.3V346h-4.3V353.7z M305.6,282H305v7.8
	h0.6V282z M315.6,282h-0.6v7.8h0.6V282z M305.6,303.3H305v7.8h0.6V303.3z M315.1,311.1h0.6v-7.8h-0.6V311.1z M305.6,324.6H305v7.8
	h0.6V324.6z M315.1,332.4h0.6v-7.8h-0.6V332.4z M305.6,346H305v7.8h0.6V346z M315.1,353.7h0.6V346h-0.6V353.7z M295.1,324.6h-0.6
	v7.8h0.6V324.6z M294.6,353.7h0.6V346h-0.6V353.7z M283.7,346v7.8h0.6V346H283.7z M312.3,267c-0.1,0-0.2,0-0.3,0
	c-1,0-1.7,0.8-1.7,1.7v5.2c0,0.4,0.3,0.6,0.6,0.6h0.6c-0.4,0-0.6-0.3-0.6-0.6v-5.2C310.8,267.9,311.4,267.2,312.3,267z M399.4,391.1
	h19.5V346h-19.5V391.1z M370.5,332.4c-0.1,0-0.2,0-0.3,0c-2.8,0-5,2.3-5,5c0,2.8,2.3,5,5,5c0.1,0,0.2,0,0.3,0
	c-2.6-0.2-4.8-2.3-4.8-5C365.7,334.8,367.8,332.6,370.5,332.4z M352.1,353.2h-0.6v10.1h0.6V353.2z M368.6,353.2H368v10.1h0.6V353.2z
	 M385.1,353.2h-0.6v10.1h0.6V353.2z M351.5,379.7h0.6v-10.1h-0.6V379.7z M368,379.7h0.6v-10.1H368V379.7z M384.5,379.7h0.6v-10.1
	h-0.6V379.7z M99.1,366.1h-3.4v9.5h2c-0.3,0.7-0.6,1.4-1,2c-0.8,1.2-1.4,2.5-1.8,3.8c-2.2-0.3-4.1-0.2-5.7-0.1V344h18.3v11.9v0
	C103.1,357.4,100,361.5,99.1,366.1z M101.4,350.7h-5.7v9.5h5.7V350.7z M60.3,353.2v-2.5h-0.6C60,351.5,60.2,352.4,60.3,353.2z
	 M75.1,360.2h0.7v-9.5h-0.7V360.2z M75.1,375.5h0.7v-9.5h-0.7V375.5z M237.4,394.3h-37.1v-28.5l19.6-19.5l17.5,19.5V394.3z
	 M211.2,383.2h-3.3v6.8h3.3V383.2z M211.2,369.4h-3.3v6.8h3.3V369.4z M221.8,383.2h-3.3v6.8h3.3V383.2z M221.8,369.4h-3.3v6.8h3.3
	V369.4z M232.4,383.2h-3.3v6.8h3.3V383.2z M232.4,369.4h-3.3v6.8h3.3V369.4z M193.1,369.4h-0.6v6.8h0.6V369.4z M192.5,390h0.6v-6.8
	h-0.6V390z M182.6,369.4H182v6.8h0.6V369.4z M182,390h0.6v-6.8H182V390z M172.2,369.4h-0.6v6.8h0.6V369.4z M171.6,390h0.6v-6.8h-0.6
	V390z M161.2,376.2h0.6v-6.8h-0.6V376.2z M161.2,390h0.6v-6.8h-0.6V390z M151.4,369.4h-0.6v6.8h0.6V369.4z M150.8,390h0.6v-6.8h-0.6
	V390z M140.9,369.4h-0.6v6.8h0.6V369.4z M140.3,390h0.6v-6.8h-0.6V390z M549.9,411.2c-2.2,3.3-4.2,6.9-5.9,10.5h-28.9
	c-1.9,0-3.5,1.6-3.5,3.5s1.6,3.5,3.5,3.5h25.3c-9.4,3.2-18,7.9-25.6,13.9c-12.6-7.3-27.1-11.4-42.7-11.4c-20.1,0-38.5,6.9-53.1,18.5
	h-17.7c-2.7,0-5,1.9-5.6,4.4c-0.1,0.5-0.2,0.9-0.2,1.4c0,3.2,2.6,5.8,5.8,5.8h5.7c-4,4.7-7.5,9.9-10.4,15.4h-35.9
	c-3.2,0-5.8,2.6-5.8,5.8c0,3.2,2.6,5.8,5.8,5.8h13.8c-3.2,3-4.1,12.4,1.9,11.5c6.7-1,2.4-9.5-1.3-11.5h16.4
	c-1.9,5.6-3.3,11.4-4.1,17.4h-170c-4.9,0-8.9-4-8.7-9c0.1-4.8,4.3-8.4,9.1-8.4h6c-0.5,0.3-1,0.6-1.5,1c8.7,3.5,24.9,11.4,24.5,9.8
	c-1-4.8-4.3-8.7-8.5-10.8h33.1c-4.7,3.5-5.8,9.6-2.4,14.9c2.8-1.3,5.7-3.8,6.6-6.9c0.7-2.5,0.1-5.5-1.1-8h42.2
	c3.2,0,5.8-2.6,5.8-5.8c0-3.2-2.6-5.8-5.8-5.8h-10.2c-4.3,0-7.8-3.6-7.7-8c0.1-3.8,3.1-6.8,6.8-7.4c0.4-0.1,0.8-0.1,1.2-0.1h25.5
	c3.2,0,5.8-2.6,5.8-5.8c0-3.2-2.6-5.8-5.8-5.8h-65.7c-6,0-10.9-5.1-10.5-11.2c0.4-5.6,5.2-9.8,10.8-9.8H339h11.6h59.9
	c2.5,5,5.5,7.5,11.2,9.3c1.4-3.1,1.3-6.7-1-9.3h30c1.9,0,3.5-1.6,3.5-3.5c0-0.4-0.1-0.8-0.2-1.2c2.8-3.5,3-8.4,0.2-12.8L549.9,411.2
	L549.9,411.2z M351.1,488c-2.8-1.8-6.7-1.8-9.9-0.9c1.5,7.4,8,11.3,15.2,9.3C355.8,493.2,354,489.8,351.1,488z M364.5,452
	c-4.2-1.6-7.9-4.3-10.2-8.2c-7.5,12.3,13.4,23.7,19.3,10.8C374.4,452.9,366.6,452.8,364.5,452z M384.4,416c-0.3,3.1,2.2,5.8,5.2,5.8
	h57.9c-0.3-4.3,2-8.4,6.4-10.5h-64.1C387.1,411.2,384.7,413.2,384.4,416z M226.1,468.2c-8.6,0-17.1,0-25.7,0c-2.8,0-2.8,4.4,0,4.4
	c8.6,0,17.1,0,25.7,0C228.9,472.5,228.9,468.2,226.1,468.2z M234.7,472.5c2.8,0,2.8-4.4,0-4.4C231.9,468.2,231.9,472.5,234.7,472.5z
	 M328.4,538.9c-3.8,0-7.5,0-11.3,0c-2.8,0-2.8,4.4,0,4.4c3.8,0,7.5,0,11.3,0C331.2,543.3,331.2,538.9,328.4,538.9z M338.9,538.9
	c-2.8,0-2.8,4.4,0,4.4C341.7,543.3,341.7,538.9,338.9,538.9z M294.6,516.4c-2.8,0-2.8,4.4,0,4.4
	C297.4,520.7,297.4,516.4,294.6,516.4z M317.1,516.4c-4.8,0-9.6,0-14.4,0c-2.8,0-2.8,4.4,0,4.4c4.8,0,9.6,0,14.4,0
	C319.9,520.7,319.9,516.4,317.1,516.4z M351.3,520.3c-4.4,0-8.8,0-13.2,0c-2.8,0-2.8,4.4,0,4.4c4.4,0,8.8,0,13.2,0
	C354.2,524.6,354.2,520.3,351.3,520.3z M152.1,453.4c-2,0-4.1,0-6.1,0c-2.8,0-2.8,4.4,0,4.4c2.1,0,4.2,0,6.2,0
	C152,456.3,151.9,454.8,152.1,453.4z M173.2,453.4c-2.6,0-5.1,0-7.7,0c-2.8,0-2.8,4.4,0,4.4c2.6,0,5.1,0,7.7,0
	C176,457.7,176,453.4,173.2,453.4z M214.9,437c-10.3,0-20.5,0-30.8,0c-2.8,0-2.8,4.4,0,4.4c10.3,0,20.5,0,30.8,0
	C217.7,441.4,217.7,437,214.9,437z M225.4,441.4c2.8,0,5.7,0,8.5,0c2.8,0,2.8-4.4,0-4.4c-2.8,0-5.7,0-8.5,0
	C222.6,437,222.6,441.4,225.4,441.4z M155.3,416c-5.2,0-10.4,0-15.6,0c-2.8,0-2.8,4.4,0,4.4c5.2,0,10.4,0,15.6,0
	C158.2,420.4,158.2,416,155.3,416z M128.1,416c-2.8,0-2.8,4.4,0,4.4C130.9,420.4,130.9,416,128.1,416z M223.8,420.7
	c-4.1,0-8.3,0-12.4,0c-2.8,0-2.8,4.4,0,4.4c4.1,0,8.3,0,12.4,0C226.6,425.1,226.6,420.7,223.8,420.7z M313.1,418.1
	c2.1,0,4.2,0,6.3,0c2.8,0,2.8-4.4,0-4.4c-2.1,0-4.2,0-6.3,0C310.3,413.7,310.3,418.1,313.1,418.1z M274.3,418.1c9.5,0,19.1,0,28.6,0
	c2.8,0,2.8-4.4,0-4.4c-9.5,0-19.1,0-28.6,0C271.5,413.7,271.5,418.1,274.3,418.1z M361.4,419.6c2.8,0,2.8-4.4,0-4.4
	C358.6,415.3,358.6,419.6,361.4,419.6z M349,419.6c1.9,0,3.9,0,5.8,0c2.8,0,2.8-4.4,0-4.4c-1.9,0-3.9,0-5.8,0
	C346.2,415.3,346.2,419.6,349,419.6z M107.6,423c-2,0-4,0-6,0c-2.8,0-2.8,4.4,0,4.4c2,0,4,0,6,0C110.5,427.4,110.5,423,107.6,423z
	 M95.6,423c-2.8,0-2.8,4.4,0,4.4C98.4,427.4,98.4,423,95.6,423z M149.5,433.2c-2.1,0-4.2,0-6.3,0c-2.8,0-2.8,4.4,0,4.4
	c2.1,0,4.2,0,6.3,0C152.3,437.5,152.3,433.2,149.5,433.2z M166,420.4c2.1,0,4.2,0,6.3,0c2.8,0,2.8-4.4,0-4.4c-2.1,0-4.2,0-6.3,0
	C163.1,416,163.1,420.4,166,420.4z M161,187h1c2.3,0,4.2,1.9,4.2,4.2s-1.9,4.2-4.2,4.2h-55.6c-3.4,0-6.3,2.4-6.7,5.8
	c-0.4,3.8,2.6,7,6.4,7h128.6c1.8,0,3.3,1.5,3.3,3.3s-1.5,3.3-3.3,3.3h-14c-3.4,0-6.3,2.4-6.7,5.8c-0.4,3.8,2.6,7,6.4,7h121.3
	c3.8,0,6.8-3.2,6.4-7c-0.3-3.3-3.3-5.8-6.7-5.8h-75.2c-1.8,0-3.3-1.5-3.3-3.3s1.5-3.3,3.3-3.3h11c3.4,0,6.3-2.4,6.7-5.8
	c0.4-3.8-2.6-7-6.4-7h-80.9c-2.3,0-4.2-1.9-4.2-4.2s1.9-4.2,4.2-4.2h42.2c3.4,0,6.3-2.4,6.7-5.8c0.4-3.8-2.6-7-6.4-7h-77.9
	c-3.4,0-6.3,2.4-6.7,5.8C154.2,183.7,157.2,187,161,187z M322,42.2h79c2.2,0,4.1,1.8,4.1,4.1s-1.8,4.1-4.1,4.1h-41.8
	c-3.2,0-6.1,2.4-6.4,5.6c-0.4,3.7,2.5,6.8,6.1,6.8h75.1c3.6,0,6.5-3.1,6.1-6.8c-0.3-3.2-3.2-5.6-6.4-5.6h-7.7
	c-2.2,0-4.1-1.8-4.1-4.1s1.8-4.1,4.1-4.1h24.5c-7.4-4.4-15-8.5-22.7-12.3H322.3c-3.2,0-6.1,2.4-6.4,5.6
	C315.5,39.1,318.4,42.2,322,42.2z M180,90.4h45.3c1.5,0,2.7,1.2,2.7,2.7l0,0c0,1.5-1.2,2.7-2.7,2.7h-3.9c-2.8,0-5.2,2-5.5,4.8
	c-0.3,3.2,2.2,5.8,5.3,5.8h33.7c1.9,0,3.5,1.6,3.5,3.5l0,0c0,1.9-1.6,3.5-3.5,3.5h-9c-2.9,0-5.3,2.4-5.3,5.3l0,0
	c0,2.9,2.4,5.3,5.3,5.3h47.8c2.9,0,5.3-2.4,5.3-5.3l0,0c0-2.9-2.4-5.3-5.3-5.3h-10.9c-1.9,0-3.5-1.6-3.5-3.5l0,0
	c0-1.9,1.6-3.5,3.5-3.5h45.9c2.8,0,5.2-2,5.5-4.8c0.3-3.2-2.2-5.8-5.3-5.8h-80.1c-1.5,0-2.7-1.2-2.7-2.7l0,0c0-1.5,1.2-2.7,2.7-2.7
	h6.7c2.9,0,5.3-2.4,5.3-5.3l0,0c0-2.9-2.4-5.3-5.3-5.3H180c-2.9,0-5.3,2.4-5.3,5.3l0,0C174.7,88,177.1,90.4,180,90.4z M552.4,190.1
	c-0.3-3.2-3.2-5.5-6.3-5.5h-61.4c-1.6,0-2.8-1.3-2.8-2.8s1.3-2.8,2.8-2.8h3.6c3.2,0,6-2.3,6.3-5.5c0.3-3.6-2.5-6.7-6.1-6.7h-59.8
	c-3.2,0-6,2.3-6.3,5.5c-0.3,3.6,2.5,6.7,6.1,6.7h37.1c1.6,0,2.8,1.3,2.8,2.8c0,1.6-1.3,2.8-2.8,2.8h-1.3c-3.2,0-6,2.3-6.3,5.5
	c-0.3,3.6,2.5,6.7,6.1,6.7h5c1.6,0,2.8,1.3,2.8,2.8c0,1.6-1.3,2.8-2.8,2.8h-51.5c-3.2,0-6,2.3-6.3,5.5c-0.3,3.6,2.5,6.7,6.1,6.7
	h79.8c3.2,0,6-2.3,6.3-5.5c0.3-3.6-2.5-6.7-6.1-6.7h-4.6c-1.6,0-2.8-1.3-2.8-2.8c0-1.6,1.3-2.8,2.8-2.8h53.5
	C549.9,196.8,552.7,193.8,552.4,190.1z M146.6,137.4c-0.3-3.2-3.2-5.5-6.3-5.5h-34.8c-1.6,0-2.8-1.3-2.8-2.8c0-1.6,1.3-2.8,2.8-2.8
	h5.7c3.2,0,6-2.3,6.3-5.5c0.3-3.6-2.5-6.7-6.1-6.7h-0.7c-1.6,0-2.8-1.3-2.8-2.8c0-1.6,1.3-2.8,2.8-2.8h38.6c3.2,0,6-2.3,6.3-5.5
	c0.3-3.6-2.5-6.7-6.1-6.7h-63c-3.2,0-6,2.3-6.3,5.5c-0.3,3.6,2.5,6.7,6.1,6.7h2.4c1.6,0,2.8,1.3,2.8,2.8c0,1.6-1.3,2.8-2.8,2.8H63.4
	c-3.1,4-6.2,8.1-9.1,12.2h36.8c1.6,0,2.8,1.3,2.8,2.8c0,1.6-1.3,2.8-2.8,2.8h-4.2c-3.2,0-6,2.3-6.3,5.5c-0.3,3.6,2.5,6.7,6.1,6.7
	h53.9C144.1,144.1,147,141.1,146.6,137.4z M425.2,128.6c0-1.8,1.5-3.3,3.3-3.3h0.8c3.2,0,6-2.3,6.3-5.5c0.3-3.6-2.5-6.7-6.1-6.7h-63
	c-3.2,0-6,2.3-6.3,5.5c-0.3,3.6,2.5,6.7,6.1,6.7h46.2c1.8,0,3.3,1.5,3.3,3.3s-1.5,3.3-3.3,3.3h-3.7c-3.2,0-6,2.3-6.3,5.5
	c-0.3,3.6,2.5,6.7,6.1,6.7h46.9c3.6,0,6.4-3.1,6.1-6.7c-0.3-3.2-3.2-5.5-6.3-5.5h-26.7C426.7,131.9,425.2,130.4,425.2,128.6z"></path>
<path id="color_x5F_3_19_" class="st5" d="M239.9,365.8L221.1,345H215c3.3-6.4,6.2-11.4,6.2-11.4s4.4,7.7,8.5,16.1
	c0.8,1.7,1.6,3.4,2.4,5.1c1.2-2.4,2.3-4.7,3.4-6.7c2.7-5.1,4.8-8.8,4.8-8.8s1.5,2.6,3.5,6.3c1.6,2.9,3.4,6.5,5.2,10.2
	c1.2,2.4,2.3,4.8,3.3,7.2c1.2-2.5,2.5-5,3.6-7.2c2.3-4.4,4.1-7.6,4.1-7.6s1.8,3.2,4.1,7.5c1.6,3.1,3.5,6.8,5,10.3
	c-0.4,0.4-0.8,0.8-1.1,1.1c-3.1,3.3-6.8,7-11.6,6.8c-3.9-0.2-7.5-3-11.4-2.4c-3.4,0.5-5.5,3.5-7,6.3c-0.2,0.4-0.4,0.8-0.7,1.3v-13.5
	H239.9z M322.3,353.3c-1.6-2.9-2.7-4.9-2.7-4.9s-0.2,0.3-0.5,0.8c-0.5,0.9-1.4,2.5-2.5,4.6c-0.6,1.2-1.3,2.5-2,3.9
	c-1.7,3.3-3.5,7-4.9,10.4c-1.5-3.6-3.4-7.5-5.2-10.9c-1.5-2.8-2.8-5.3-3.7-6.9c-0.7-1.2-1.1-1.9-1.1-1.9s-0.4,0.7-1.1,2
	c-0.5,0.9-1.1,2.1-1.9,3.4c-1.3,2.5-2.9,5.5-4.4,8.7c-0.9,1.9-1.8,3.8-2.5,5.6c-0.6-1.5-1.4-3.2-2.1-4.8c-3.5-7.5-7.8-14.9-7.8-14.9
	s-1.2,2.1-2.9,5.2c-0.4,0.7-0.8,1.5-1.2,2.3c-1.3,2.5-2.8,5.4-4.1,8.3c2.6-1.9,5.5-3.1,8.6-2.3c4.8,1.2,6.6,6.6,10.8,9
	c4.1,2.4,9.4,1.5,14.2,0.6s10.2-1.5,14,1.1c2.2,1.5,3.4,3.9,5.4,5.5c1.9,1.5,4.3,2.4,6.8,2.8c0.4-1.2,0.7-2.6,0.7-4
	c0-1.1-0.3-2.7-0.9-4.4C329.3,366.7,325.1,358.5,322.3,353.3z M53.8,411.4c4.3-2.3,7.8-6.3,10.2-11.2c0,0,11.8,0,11.8,0l177.3,0
	v-5.8H80.2c0.1-3.4,1.6-6,3.7-7.7c2.9-2.3,7-2.9,10.9-1.4c2-4,4.2-5.8,6.1-6.5c2.3-0.9,4.2-0.4,5.4-0.5c0.7,0,1.4-0.1,2.1-0.3
	c1.4-0.4,2.7-1,3.8-2.4c1.1-1.4,1.8-3.4,3-4.7c2.1-2.3,5.1-1.7,7.8-1c2.6,0.8,5.6,1.5,7.8-0.5c2.3-2.1,3.3-6.6,6-7.6
	c1-0.4,1.9-0.2,2.8,0.3l8.7-8.7c-0.1-0.5-0.2-1-0.4-1.5c-1.9-6.5-6.6-11.4-12.1-12.3c-0.4-0.1-0.9-0.1-1.3-0.1c-3.2-0.1-6,1-8.3,2.9
	c-4.4,3.5-7,9.7-7,16.1c0,0.1,0,0.1,0,0.2c-1.9-1.8-4.3-3-6.9-3.3c-0.3,0-0.5-0.1-0.8-0.1c-1,0-2,0.1-2.9,0.3
	c-0.4,0.1-0.7,0.2-1.1,0.3c0,0,0,0-0.1,0c-4.4,1.5-7.4,5.6-8.4,10.2c-0.2,1-0.3,2-0.3,3c0,2.2-0.3,4.4-1.1,6.4c-0.3,0.7-0.6,1.4-1,2
	c-0.8,1.2-1.4,2.5-1.8,3.8c-2.2-0.3-4.1-0.2-5.7-0.1c-0.7,0-1.3,0.1-1.8,0c-3.8-0.1-7.8-0.8-10.7-3.1c-2-1.7-3.2-4-5.4-5.5
	c-1.7-1.2-3.8-1.7-6-1.9c-0.6,0-1.1,0-1.7,0c-0.6-1.4-1.3-2.9-1.8-4.6c-0.5-1.7-0.9-3.6-1-5.9c-0.1-0.8-0.1-1.6-0.1-2.5
	c0-1.5-0.2-3-0.5-4.4c-0.2-0.9-0.4-1.7-0.6-2.5c-2.2-7.1-7.6-12.3-13.9-12.6c-0.4,0-0.7,0-1.1,0c-0.7,0-1.3,0.1-2,0.2l4.6-5.6
	c-1.3-2-2.8-3.6-4.6-4.9c-0.4-0.3-0.7-0.5-1.1-0.7c-1.1-0.6-2.2-1.1-3.4-1.4c-0.9-0.2-1.8-0.4-2.7-0.4c-0.8,0-1.6,0-2.3,0.1
	c-0.4,0.1-0.7,0.1-1.1,0.2c-1.2,0.3-2.3,0.7-3.4,1.3c-1.9,1.1-3.6,2.6-5,4.5c-0.4,0.5-0.8,1.1-1.1,1.6c-0.2,0.3-0.4,0.7-0.6,1
	c-0.1-0.9-0.1-1.8-0.1-2.8c-0.1-7.8-3.7-14.6-9-18c-2-1.3-4.2-2-6.5-2.1c-2.2-0.1-4.2,0.4-6,1.2c0.5,10.2,1.5,20.3,3,30.2
	c3.4,6.6,7.3,14.3,10.5,21.6c1,2.2,1.9,4.4,2.7,6.4c0.9,2.4,1.8,4.6,2.4,6.7c2.1-4.9,4.6-10.1,7-14.8c1.4-2.8,2.8-5.3,4-7.6
	c2.8-5.2,4.9-8.8,4.9-8.8s20.4,35.4,20.4,46.7c0,5.9-2.5,11.3-6.6,15c-3.6,3.4-8.5,5.4-13.8,5.4c-2.6,0-6.7,0-11.5,0
	c0.4,1,0.9,2.1,1.4,3.1H62L53.8,411.4z M20,282.1c1.9,0.2,3.7,0.5,5.6,0.9l1.2-1.7l8.5-11.6h8.6v-5.6h2.8h3v5.6h3.3l17.5,23l3.3,4.4
	h-1.2v5.2c1.8,1.1,3.6,2.2,5.1,3.2c8.6,5.5,17.3,9.2,26.3,11.4v-31.5H103v-1.2h1.5c0,0,1-4.6,2.4-10.9c-4.9-1.3-9.7-3.7-14.6-8.4
	c-19.9-19.3-28.8-18.7-54.4-17.1c-18,1.1-20.7-7.8-31.5-11.8c-3.2,15-5.2,30.4-6,46.2C6.8,281.2,13.4,281.3,20,282.1z M126.6,284.3
	v1.2h-0.5v34.4c3.1,0.1,6.4,0.1,9.6-0.1v-20.2h-2.3l15.4-13.2h16.4c-1.8-1.3-3.6-2.5-5.2-3.5c-14.4-8.8-26.4-8.3-37.4-8.2l2.3,9.6
	L126.6,284.3L126.6,284.3z M349.4,340.5c-3.5-0.3-6.9-0.5-10.4-0.6v1.4c3,0.3,6,0.6,8.9,1L349.4,340.5z M468.4,338.7
	c2-1.8,4.8-2.9,8-2.8c6.1,0.2,11.1,5.1,11.2,11c0.1,7.8,4.8,7.8,4.8,15.9c0,8.7-7.3,15.8-16.3,15.8c0.2,0.8,0.3,1.6,0.1,2.3
	c0.9,0.3,1.8,0.5,2.8,0.6c1.8,0.2,3.6,0.2,5.3-0.1c20.3,8.2,37.3,15.3,50.6,18.7h15c-0.1-0.6-6.5-4.2-17.6-9.3
	c1.8-2.5,2.8-5.9,2.8-9.5c0-6.9-2.9-7.4-3.3-13.2c0,0,0,0,0,0c0,0,0,0,0,0c0-0.3,0-0.9,0-1.2c0-5.4-3.5-9.9-7.7-10
	c-4.9-0.2-8.2,4.9-8.2,10.2c0,0.3,0,0.8,0,1.1c0,0,0,0,0,0s0,0,0,0c-0.1,1.8-0.5,3.6-1.3,5.1c-1.5,2.9-2.1,6-1.9,9.1
	c-5.3-2.2-11-4.4-17.1-6.8c2-2.1,3.7-4.6,4.9-7.4c0,0,0,0,0,0c1.4-3.4,2.3-7.3,2.3-11.3c0-0.5,0-1,0-1.5
	c-0.5-11.4-6.1-11.8-6.2-23.7c-0.1-9.3-6.6-17.2-14.5-17.5c-8.2-0.3-14.1,6.8-15.2,14.8l1.7,1.3L468.4,338.7L468.4,338.7z
	 M328.6,575.8C328.6,575.8,328.6,575.8,328.6,575.8c-4.2,6-7.7,12.3-10.4,18.7c-6.8,0.5-13.7,0.7-20.6,0.7c-5,0-9.9-0.1-14.8-0.4
	c-1.6-2.8-3.3-5.6-5.2-8.4c-26.2-36.8-76.3-46.6-114.3-23.3c-8.7-4.4-17.1-9.2-25.2-14.4c-2.4-10.8-6.9-21.3-13.8-30.9
	c-14.6-20.5-36.6-32.6-59.8-35.3c-14.1-17.7-26.2-37.1-36-57.8c2.1-0.1,4.3-0.2,6.5-0.2c21.2,0,40.9,6.5,57.1,17.7
	c3.9,2.7,7.7,5.7,11.2,8.9c0.2,0.2,0.4,0.3,0.6,0.5c0.5,0.4,0.9,0.9,1.4,1.3c4.3,4.2,8.3,8.8,11.8,13.7c2.2,3,4.2,6.1,6,9.3
	c34,1.3,63.6,19.4,80.9,46.2c10.3-3.6,21.4-5.5,33-5.5C277.6,516.7,312.7,541,328.6,575.8z M198.9,541.5c0,0-11.6-14.6-15.8-7.1
	C178.8,542.2,198.9,541.5,198.9,541.5z M288.7,550.1c-5.7,3.3-14.3,5.6-20.9,5.7C271.9,567.2,290.8,562,288.7,550.1z M583.2,381.8
	c-4.8,16.2-10.9,31.9-18.2,46.8c-17.4,7-33.1,18.9-44.8,35.4c-6.7,9.4-11.4,19.6-14.5,30.2c-31.9-1.3-63.7,12.5-84.4,39.5
	c-26.5-2.7-53.4,5.2-74.4,22.4c8.6-16.9,22.6-30.5,39.8-38.6c0-0.3,0-0.6,0-0.9c0-3.6,0.3-7.2,0.7-10.7c0.8-6,2.1-11.9,4.1-17.4
	c1.4-4,3.1-7.9,5.1-11.7c2.9-5.5,6.4-10.7,10.4-15.4c2-2.4,4.2-4.7,6.5-6.9c1.8-1.7,3.6-3.3,5.5-4.8c14.6-11.6,33-18.5,53.1-18.5
	c15.6,0,30.1,4.2,42.7,11.4c7.6-6,16.2-10.8,25.6-13.9c0.2-0.1,0.5-0.2,0.7-0.3c0.9-2.3,1.8-4.5,2.9-6.7c1.7-3.6,3.7-7.2,5.9-10.5
	C558.2,398.7,569.7,388.5,583.2,381.8z M458.7,469.2c-2.5,6.9-3.8,13-4.1,20.3c2.8-0.4,5.3-1.8,7.1-4
	C465.8,480.3,464.2,472.7,458.7,469.2z M503.3,470.8c-1.2-7.2-3.3-12-8.1-17.6c-3.4,4.1-3.8,9.6-0.5,14
	C495.5,468.3,503.9,474.2,503.3,470.8z M356.4,496.4c-0.6-3.2-2.4-6.6-5.3-8.4c-2.8-1.8-6.7-1.8-9.9-0.9
	C342.7,494.4,349.2,498.4,356.4,496.4z M454,424c2.8-3.5,3-8.4,0.2-12.8c0,0,0-0.1,0-0.1c-0.1,0-0.1,0.1-0.2,0.1
	c-4.5,2.1-6.8,6.2-6.4,10.5c0.1,1.9,0.8,3.9,2,5.8C451.4,426.7,452.9,425.5,454,424z M421.7,438.1c1.4-3.1,1.3-6.7-1-9.3
	c-0.2-0.2-0.4-0.4-0.6-0.6c-2.9-2.6-7-2.4-10.1-0.5c0.2,0.4,0.3,0.8,0.5,1.1C413.1,433.8,416.1,436.2,421.7,438.1z M376.4,500
	c6.7-1,2.4-9.5-1.3-11.5c-0.1-0.1-0.3-0.2-0.4-0.2c-0.1,0.1-0.1,0.1-0.2,0.2C371.2,491.5,370.3,500.9,376.4,500z M269,503.4
	c2.8-1.3,5.7-3.8,6.6-6.9c0.7-2.5,0.1-5.5-1.1-8c-0.2-0.5-0.5-0.9-0.7-1.4c-0.9,0.4-1.6,0.9-2.4,1.4
	C266.7,492,265.6,498.1,269,503.4z M223.8,488.5c-0.5,0.3-1,0.6-1.5,1c8.7,3.5,24.9,11.4,24.5,9.8c-1-4.8-4.3-8.7-8.5-10.8
	C233.8,486.2,228.4,485.9,223.8,488.5z M116.7,421.4c-1.4,8.6-1.4,16.1,0.1,24.6c7.8-4.4,9.5-15.3,3.4-21.9
	C119.2,423,118,422.1,116.7,421.4z M458.6,523.5c-1.1,3.3-0.3,7.2,1.3,10.1c6.9-3.4,9.3-10.8,5.7-17.5
	C462.6,517.6,459.7,520.2,458.6,523.5z M409.9,549c-3.9-0.8-8,0.2-11.4,2c5.3,6.8,13.4,8.4,21,4.6
	C417.1,552.5,413.7,549.8,409.9,549z M225.7,579c5.7,5.2,13.6,4.7,18.7-1.1c-2.5-2.3-6.1-4-9.6-3.8
	C231.3,574.3,227.9,576.4,225.7,579z"></path>
<path id="color_x5F_2_19_" class="st6" d="M401.3,449.7H419c-1.9,1.5-3.8,3.1-5.5,4.8h-15.8l-2-0.4
	C396.3,451.6,398.6,449.7,401.3,449.7z M332.3,449.7h-31.5v9.2h-0.9l0.9,0.4l0,0l4.8,2.1c0.4-0.1,0.8-0.1,1.2-0.1h25.5
	c3.2,0,5.8-2.6,5.8-5.8C338.1,452.3,335.5,449.7,332.3,449.7z M549.9,400.1c-0.1,0.3-6.5,1.9-17.6,4.2c1.8,1.1,2.8,2.6,2.8,4.2
	c0,1.3-0.5,2-1.1,2.7h-20.4c-0.8-1-1.2-2.1-1-3.1c-5.3,1-11,2-17.1,3c0.1,0,0.1,0.1,0.2,0.1h-41.4c0,0,0-0.1,0-0.1
	c-0.1,0-0.1,0.1-0.2,0.1h-64.1c-2.7,0-5.2,2-5.5,4.7c-0.3,3.1,2.2,5.8,5.2,5.8h57.9c0.1,1.9,0.8,3.9,2,5.8c1.9-0.9,3.3-2.1,4.4-3.5
	c0.1,0.4,0.2,0.8,0.2,1.2c0,1.9-1.6,3.5-3.5,3.5h-30c-0.2-0.2-0.4-0.4-0.6-0.6c-2.9-2.6-7-2.4-10.1-0.5c0.2,0.4,0.3,0.8,0.5,1.1
	h-59.9v-1.4l-1.2-0.7c-3.5,0.1-6.9,0.2-10.4,0.3v1.7h-72.1c-5.6,0-10.5,4.2-10.8,9.8c-0.4,6.1,4.4,11.2,10.5,11.2h6.4l-1.5,0.8
	l1.1,0.5H226l-10.9,4.8l-24.7-0.1l-10.1-5h-20.1c0.3-1.3,0.9-2.5,1.6-3.6c-4.8-1.3-7.7,0.6-9,3.6h-4l-15.4-5.9h2.3v-8.7
	c-3.2,0.1-6.5,0.3-9.6,0.6v14.4h0.5v0.5h-1.7l-7.9,14.9c-3.5-4.9-7.5-9.5-11.8-13.7c-0.4-0.8-0.6-1.3-0.6-1.3h-0.7
	c-0.2-0.2-0.4-0.3-0.6-0.5h0.6v-11.6c-4.1,0.8-8.1,1.6-11.8,2.7c-16.2-11.2-35.9-17.7-57.1-17.7c-2.2,0-4.3,0.1-6.5,0.2
	c-1.3-2.7-2.5-5.5-3.7-8.2H62l-8.2-5.3c4.3-2.3,7.8-6.3,10.2-11.2L549.9,400.1z M95.6,423c-2.8,0-2.8,4.4,0,4.4
	C98.4,427.4,98.4,423,95.6,423z M107.6,423c-2,0-4,0-6,0c-2.8,0-2.8,4.4,0,4.4c2,0,4,0,6,0C110.5,427.4,110.5,423,107.6,423z
	 M120.2,424.2c-1-1.1-2.2-2-3.5-2.7c-1.4,8.6-1.4,16.1,0.1,24.6C124.6,441.6,126.3,430.7,120.2,424.2z M128.1,416
	c-2.8,0-2.8,4.4,0,4.4C130.9,420.4,130.9,416,128.1,416z M149.5,433.2c-2.1,0-4.2,0-6.3,0c-2.8,0-2.8,4.4,0,4.4c2.1,0,4.2,0,6.3,0
	C152.3,437.5,152.3,433.2,149.5,433.2z M155.3,416c-5.2,0-10.4,0-15.6,0c-2.8,0-2.8,4.4,0,4.4c5.2,0,10.4,0,15.6,0
	C158.2,420.4,158.2,416,155.3,416z M172.3,416c-2.1,0-4.2,0-6.3,0c-2.8,0-2.8,4.4,0,4.4c2.1,0,4.2,0,6.3,0
	C175.1,420.4,175.1,416,172.3,416z M211.3,425.1c4.1,0,8.3,0,12.4,0c2.8,0,2.8-4.4,0-4.4c-4.1,0-8.3,0-12.4,0
	C208.5,420.7,208.5,425.1,211.3,425.1z M214.9,437c-10.3,0-20.5,0-30.8,0c-2.8,0-2.8,4.4,0,4.4c10.3,0,20.5,0,30.8,0
	C217.7,441.4,217.7,437,214.9,437z M233.9,437c-2.8,0-5.7,0-8.5,0c-2.8,0-2.8,4.4,0,4.4c2.8,0,5.7,0,8.5,0
	C236.7,441.4,236.7,437,233.9,437z M302.9,413.7c-9.5,0-19.1,0-28.6,0c-2.8,0-2.8,4.4,0,4.4c9.5,0,19.1,0,28.6,0
	C305.8,418.1,305.8,413.7,302.9,413.7z M319.4,413.7c-2.1,0-4.2,0-6.3,0c-2.8,0-2.8,4.4,0,4.4c2.1,0,4.2,0,6.3,0
	C322.3,418.1,322.3,413.7,319.4,413.7z M354.8,415.3c-1.9,0-3.9,0-5.8,0c-2.8,0-2.8,4.4,0,4.4c1.9,0,3.9,0,5.8,0
	C357.7,419.6,357.7,415.3,354.8,415.3z M361.4,415.3c-2.8,0-2.8,4.4,0,4.4C364.3,419.6,364.3,415.3,361.4,415.3z M283.7,299.6h-1.9
	v21.6l19-22.8v-17l-3.3-1.5c-6.8-3.2-14.9-2.5-21.1,1.8l-6.2,4.2h2.4L283.7,299.6z M350.6,339.1v-32.2l8.1-8.3
	c-6,3.3-13.2,3.6-19.4,0.7l-0.4-0.2v40.8c3.5,0.1,6.9,0.4,10.4,0.6L350.6,339.1z M595.2,293.2l-24.9,8c-5.5,1.8-11.5,1.2-16.6-1.5
	l-91.3-48.6c-6.5-3.4-14.3-3.3-20.6,0.3l-44.1,25.1v1.7h22.7l27.4,24.8v12.2h0.1l18.8,13.8c1.1-8,7-15.1,15.2-14.8
	c7.9,0.3,14.4,8.1,14.5,17.5c0.1,11.9,5.7,12.3,6.2,23.7c2.7,0,5.5,0.4,8.2,1.1c8.6-11.1,18.7-8.9,22.9-9.1s8.6-0.9,11.7-3.5
	c2.2-1.8,3.6-4.4,6-6.1c4.2-3,10.2-2.2,15.5-1.3s11.1,2,15.6-0.6c4.5-2.6,6.5-8.2,11.4-9.8c0.9-9.3,1.4-18.8,1.4-28.4
	C595.3,296.1,595.2,294.6,595.2,293.2z M37.9,247.9c25.7-1.6,34.5-2.1,54.4,17.1c4.9,4.7,9.7,7.1,14.6,8.4c2.9-13,7.4-33.1,7.5-33.2
	l8.1,34.5c11-0.1,23-0.5,37.4,8.2c1.6,1,3.4,2.2,5.2,3.5h15.1l10.1-11.2l24.7-0.2l10.9,10.9h31.8l-25.4-25.4
	c-3.6-3.6-8.4-5.5-13.4-5.5h-21.8c-6.3,0-12.1-3.1-15.6-8.3l-26.2-38.4h-49.2c-3.8,0-6.8-3.2-6.4-7c0.3-3.3,3.3-5.8,6.7-5.8h40.2
	l-17.5-25.7c-5.8-8.5-17.2-10.8-25.8-5.3l-37.2,23.8c-7,4.5-16.2,3.9-22.5-1.6l-16.2-13.8c-9.3,20-16.4,41.2-21,63.3
	C17.2,240.1,19.9,249,37.9,247.9z"></path>
<path id="color_x5F_1_20_" class="st7" d="M103.3,164.5c8.6-5.5,20.1-3.2,25.8,5.3l17.5,25.7H162c2.3,0,4.2-1.9,4.2-4.2
	s-1.9-4.2-4.2-4.2h-1c-3.8,0-6.8-3.2-6.4-7c0.3-3.3,3.3-5.8,6.7-5.8h77.9c3.8,0,6.8,3.2,6.4,7c-0.3,3.3-3.3,5.8-6.7,5.8h-42.2
	c-2.3,0-4.2,1.9-4.2,4.2s1.9,4.2,4.2,4.2h80.9c3.8,0,6.8,3.2,6.4,7c-0.3,3.3-3.3,5.8-6.7,5.8h-11c-1.8,0-3.3,1.5-3.3,3.3
	s1.5,3.3,3.3,3.3h75.2c3.4,0,6.3,2.4,6.7,5.8c0.4,3.8-2.6,7-6.4,7H220.5c-3.8,0-6.8-3.2-6.4-7c0.3-3.3,3.3-5.8,6.7-5.8h14
	c1.8,0,3.3-1.5,3.3-3.3s-1.5-3.3-3.3-3.3h-79.3l26.2,38.4c3.5,5.2,9.4,8.3,15.6,8.3H219c5,0,9.8,2,13.4,5.5l25.4,25.4h12.3l6.2-4.2
	c6.2-4.3,14.2-4.9,21.1-1.8l3.3,1.5v-13.2h-0.9l0.9-0.9v0l11.8-11.7h15.4l11.1,11.8v31.7l0.4,0.2c6.2,2.9,13.4,2.6,19.4-0.7l0.2-0.2
	h-0.7v-2.7h0.7v-48.1h-1.4v-2h2.6c0,0,16.9-87.9,17.3-88.3l18.1,88.3h3v2h-0.8v28.9l44.1-25.1c6.4-3.6,14.2-3.7,20.6-0.3l91.3,48.6
	c5.1,2.7,11.1,3.3,16.6,1.5l24.9-8C593.6,186.6,536,93.5,450.5,42.2h-24.5c-2.2,0-4.1,1.8-4.1,4.1s1.8,4.1,4.1,4.1h7.7
	c3.2,0,6.1,2.4,6.4,5.6c0.4,3.7-2.5,6.8-6.1,6.8H359c-3.6,0-6.5-3.1-6.1-6.8c0.3-3.2,3.2-5.6,6.4-5.6H401c2.2,0,4.1-1.8,4.1-4.1
	s-1.8-4.1-4.1-4.1h-79c-3.6,0-6.5-3.1-6.1-6.8c0.3-3.2,3.2-5.6,6.4-5.6h105.5C388.5,10.8,344.3,0,297.6,0
	C202.5,0,117.9,44.6,63.4,114h25.4c1.6,0,2.8-1.3,2.8-2.8c0-1.6-1.3-2.8-2.8-2.8h-2.4c-3.6,0-6.4-3.1-6.1-6.7
	c0.3-3.2,3.2-5.5,6.3-5.5h63c3.6,0,6.4,3.1,6.1,6.7c-0.3,3.2-3.2,5.5-6.3,5.5h-38.6c-1.6,0-2.8,1.3-2.8,2.8c0,1.6,1.3,2.8,2.8,2.8
	h0.7c3.6,0,6.4,3.1,6.1,6.7c-0.3,3.2-3.2,5.5-6.3,5.5h-5.7c-1.6,0-2.8,1.3-2.8,2.8s1.3,2.8,2.8,2.8h34.8c3.2,0,6,2.3,6.3,5.5
	c0.3,3.6-2.5,6.7-6.1,6.7H86.6c-3.6,0-6.4-3.1-6.1-6.7c0.3-3.2,3.2-5.5,6.3-5.5h4.2c1.6,0,2.8-1.3,2.8-2.8c0-1.6-1.3-2.8-2.8-2.8
	H54.3C44,140.9,35,156.4,27.4,172.8l16.2,13.8c6.3,5.4,15.5,6.1,22.5,1.6L103.3,164.5z M494.6,173.5c-0.3,3.2-3.2,5.5-6.3,5.5h-3.6
	c-1.6,0-2.8,1.3-2.8,2.8c0,1.6,1.3,2.8,2.8,2.8H546c3.2,0,6,2.3,6.3,5.5c0.3,3.6-2.5,6.7-6.1,6.7h-53.5c-1.6,0-2.8,1.3-2.8,2.8
	c0,1.6,1.3,2.8,2.8,2.8h4.6c3.6,0,6.4,3.1,6.1,6.7c-0.3,3.2-3.2,5.5-6.3,5.5h-79.8c-3.6,0-6.4-3.1-6.1-6.7c0.3-3.2,3.2-5.5,6.3-5.5
	h51.5c1.6,0,2.8-1.3,2.8-2.8c0-1.6-1.3-2.8-2.8-2.8h-5c-3.6,0-6.4-3.1-6.1-6.7c0.3-3.2,3.2-5.5,6.3-5.5h1.3c1.6,0,2.8-1.3,2.8-2.8
	s-1.3-2.8-2.8-2.8h-37.1c-3.6,0-6.4-3.1-6.1-6.7c0.3-3.2,3.2-5.5,6.3-5.5h59.8C492.1,166.7,494.9,169.8,494.6,173.5z M360.3,118.6
	c0.3-3.2,3.2-5.5,6.3-5.5h63c3.6,0,6.4,3.1,6.1,6.7c-0.3,3.2-3.2,5.5-6.3,5.5h-0.8c-1.8,0-3.3,1.5-3.3,3.3s1.5,3.3,3.3,3.3h26.7
	c3.2,0,6,2.3,6.3,5.5c0.3,3.6-2.5,6.7-6.1,6.7h-46.9c-3.6,0-6.4-3.1-6.1-6.7c0.3-3.2,3.2-5.5,6.3-5.5h3.7c1.8,0,3.3-1.5,3.3-3.3
	s-1.5-3.3-3.3-3.3h-46.2C362.8,125.3,359.9,122.2,360.3,118.6z M174.7,85.1c0-2.9,2.4-5.3,5.3-5.3h75.5c2.9,0,5.3,2.4,5.3,5.3l0,0
	c0,2.9-2.4,5.3-5.3,5.3h-6.7c-1.5,0-2.7,1.2-2.7,2.7l0,0c0,1.5,1.2,2.7,2.7,2.7h79.9c2.8,0,5.2,2,5.5,4.8c0.3,3.2-2.2,5.8-5.3,5.8
	h-46.1c-1.9,0-3.5,1.6-3.5,3.5l0,0c0,1.9,1.6,3.5,3.5,3.5h10.9c2.9,0,5.3,2.4,5.3,5.3l0,0c0,2.9-2.4,5.3-5.3,5.3h-47.8
	c-2.9,0-5.3-2.4-5.3-5.3l0,0c0-2.9,2.4-5.3,5.3-5.3h9c1.9,0,3.5-1.6,3.5-3.5l0,0c0-1.9-1.6-3.5-3.5-3.5h-33.5c-2.8,0-5.2-2-5.5-4.8
	c-0.3-3.2,2.2-5.8,5.3-5.8h4.2c1.5,0,2.7-1.2,2.7-2.7l0,0c0-1.5-1.2-2.7-2.7-2.7H180C177.1,90.4,174.7,88,174.7,85.1L174.7,85.1z
	 M513.5,411.2h-17.9c-0.1,0-0.1-0.1-0.2-0.1c6.1-1,11.9-2,17.1-3C512.4,409.2,512.7,410.2,513.5,411.2z M104.5,451.8
	c0,0,0.2,0.5,0.6,1.3c-0.5-0.4-0.9-0.9-1.4-1.3H104.5z M103.8,451.3h-0.6c-3.5-3.2-7.2-6.2-11.2-8.9c3.7-1,7.7-1.9,11.8-2.7V451.3z
	 M350.6,427.4v1.4H339V427c3.5-0.1,6.9-0.2,10.4-0.3L350.6,427.4z M514.5,373.2c-1.5,2.9-2.1,6-1.9,9.1c-5.3-2.2-11-4.4-17.1-6.8
	c2-2.1,3.7-4.6,4.9-7.4c0,0,0,0,0,0h15.4C515.7,369.9,515.3,371.7,514.5,373.2z M397.7,454.5h15.8c-2.3,2.2-4.5,4.5-6.5,6.9h-5.7
	c-3.2,0-5.8-2.6-5.8-5.8c0-0.5,0.1-1,0.2-1.4L397.7,454.5z M531.8,368.1h55.1c-1.1,4.6-2.3,9.2-3.7,13.7
	c-13.5,6.7-25,16.9-33.3,29.5H534c0.6-0.7,1.1-1.4,1.1-2.7c0-1.6-1.1-3.1-2.8-4.2c11.1-2.3,17.6-3.9,17.6-4.2v0
	c-0.1-0.6-6.5-4.2-17.6-9.3c1.8-2.5,2.8-5.9,2.8-9.5C535.1,374.4,532.2,374,531.8,368.1z M360.7,476.8h35.9c-2,3.7-3.7,7.6-5.1,11.7
	h-16.4c-0.1-0.1-0.3-0.2-0.4-0.2c-0.1,0.1-0.1,0.1-0.2,0.2h-13.8c-3.2,0-5.8-2.6-5.8-5.8C354.9,479.4,357.5,476.8,360.7,476.8z
	 M515.1,421.7H544c-1,2.2-2,4.4-2.9,6.7c-0.2,0.1-0.5,0.2-0.7,0.3h-25.3c-1.9,0-3.5-1.6-3.5-3.5
	C511.6,423.3,513.1,421.7,515.1,421.7z M217.4,505.9c-4.9,0-8.9-4-8.7-9c0.1-4.8,4.3-8.4,9.1-8.4h6c4.6-2.6,10-2.3,14.5,0h33.1
	c0.7-0.5,1.5-1,2.4-1.4c0.3,0.4,0.5,0.9,0.7,1.4h42.2c3.2,0,5.8-2.6,5.8-5.8c0-3.2-2.6-5.8-5.8-5.8h-10.2c-4.3,0-7.8-3.6-7.7-8
	c0.1-3.8,3.1-6.8,6.8-7.4l-4.8-2.1l0,0l-0.9-0.4h0.9v-9.2H273l-1.5,0.8l1.1,0.5H226l-10.9,4.8l-24.7-0.1l-10.1-5h-20.1
	c-1,3.6-0.3,7.8,2,10.7c0.8,1,1.8,1.9,2.9,2.6c-6.9,5.1-11.8-0.3-12.9-6.4c-2.1,0-4.2,0-6.2,0c-2.8,0-2.8-4.4,0-4.4c2,0,4.1,0,6.1,0
	c0.1-0.9,0.4-1.7,0.7-2.5h-4l-15.4-5.9h2.3v-8.7c-3.2,0.1-6.5,0.3-9.6,0.6v14.4h0.5v0.5h-1.7l-7.9,14.9c2.2,3,4.2,6.1,6,9.3
	c34,1.3,63.6,19.4,80.9,46.2c10.3-3.6,21.4-5.5,33-5.5c40.8,0,75.9,24.2,91.8,59.1c5.3-7.6,11.5-14.2,18.3-19.8
	c8.6-16.9,22.6-30.5,39.8-38.6c0-0.3,0-0.6,0-0.9c0-3.6,0.3-7.2,0.7-10.7L217.4,505.9L217.4,505.9z M234.7,468.2
	c2.8,0,2.8,4.4,0,4.4C231.9,472.5,231.9,468.2,234.7,468.2z M173.2,457.7c-2.6,0-5.1,0-7.7,0c-2.8,0-2.8-4.4,0-4.4
	c2.6,0,5.1,0,7.7,0C176,453.4,176,457.7,173.2,457.7z M200.4,472.5c-2.8,0-2.8-4.4,0-4.4c8.6,0,17.1,0,25.7,0c2.8,0,2.8,4.4,0,4.4
	C217.6,472.5,209,472.5,200.4,472.5z M336.2,528.2c0.6,0.5,1.2,1.2,1.6,1.9c-6.8,2.6-13.3,4.8-20.3,6.9
	C317.3,527.5,328.8,521.9,336.2,528.2z M294.6,520.7c-2.8,0-2.8-4.4,0-4.4C297.4,516.4,297.4,520.7,294.6,520.7z M302.7,520.7
	c-2.8,0-2.8-4.4,0-4.4c4.8,0,9.6,0,14.4,0c2.8,0,2.8,4.4,0,4.4C312.3,520.7,307.5,520.7,302.7,520.7z M328.4,543.3
	c-3.8,0-7.5,0-11.3,0c-2.8,0-2.8-4.4,0-4.4c3.8,0,7.5,0,11.3,0C331.2,538.9,331.2,543.3,328.4,543.3z M338.9,543.3
	c-2.8,0-2.8-4.4,0-4.4C341.7,538.9,341.7,543.3,338.9,543.3z M351.3,524.6c-4.4,0-8.8,0-13.2,0c-2.8,0-2.8-4.4,0-4.4
	c4.4,0,8.8,0,13.2,0C354.2,520.3,354.2,524.6,351.3,524.6z"></path>
</svg>