<?xml version="1.0" standalone="no"?>
<svg version="1.1" id="Layer_1" xmlns="http://www.w3.org/2000/svg" xmlns:xlink="http://www.w3.org/1999/xlink" x="0px" y="0px" viewBox="0 0 595.276 595.276" enable-background="new 0 0 595.276 595.276" xml:space="preserve">
<path id="color_x5F_8_10_" fill="#B2DBB9" d="M153.263,363.891l1.639-3.024l-5.988-9.623l2.353-11.879l6.785,3.631v52.556
	l-8.767,0.214v-31.875H153.263z M156.827,437.77c0,7.912,4.062,14.868,10.208,18.921c3.128,2.063,6.798,3.357,10.75,3.651
	c0-2.189,0-4.378,0-6.567c-3.881-2.731-7.762-5.462-11.643-8.193c-1.777-1.25-0.077-4.196,1.715-2.935
	c3.309,2.329,6.618,4.658,9.928,6.986c0-8.788,0-17.576,0-26.364c0-1.095,0.85-1.642,1.699-1.642v-6.515
	C166.971,415.113,156.827,425.257,156.827,437.77z M170.922,394.362c4.457-0.645,8.868-1.491,13.258-2.447V356.49l-5.203-2.785
	L170.922,394.362z M384.837,537.716v-48.423l-8.048-3.078l-14.454,52.14h40.729v-40.126l-6.582-2.518L384.837,537.716z
	 M197.711,451.201c0.147-0.2,0.299-0.396,0.44-0.6c4.081,2.716,8.878,4.44,14.049,4.824c0-2.848,0-5.695,0-8.543
	c-3.386-2.383-6.771-4.765-10.157-7.147C201.675,444.007,200.117,447.936,197.711,451.201z M244.745,382.506
	c3.004,0.012,5.995,0.082,8.976,0.21v-20.329l-4.512-2.415L244.745,382.506z M208.7,379.266c0-1.314,0-2.629,0-3.943
	c-2.33-1.64-4.661-3.28-6.991-4.92c-1.067-0.751-0.046-2.52,1.03-1.762c1.987,1.398,3.974,2.797,5.961,4.195
	c0-5.277,0-10.554,0-15.831c0-0.658,0.51-0.986,1.02-0.986v-3.912c-7.514,0-13.605,6.091-13.605,13.605
	C196.115,372.882,201.664,378.743,208.7,379.266z M263.964,383.363c4.531,0.385,9.046,0.893,13.552,1.51v-35.931l-6.088-3.258
	L263.964,383.363z M58.721,326.086l2.537,12.807l5.503-8.843l-7.979-4.27L58.721,326.086z M219.44,356.202
	c-0.832,1.761-1.311,3.721-1.311,5.797c0,3.704,1.485,7.058,3.885,9.511c2.246,2.296,5.298,3.79,8.699,4.043
	c0-1.315,0-2.629,0-3.943c-2.331-1.64-4.661-3.28-6.991-4.92c-1.067-0.751-0.046-2.52,1.03-1.762
	c1.987,1.398,3.974,2.797,5.961,4.195c0-5.277,0-10.554,0-15.831c0-0.658,0.51-0.986,1.02-0.986v-3.912
	C226.297,348.394,221.618,351.591,219.44,356.202z M23.853,357.927c-4.969,2.026-8.474,6.899-8.474,12.596
	c0,3.793,1.555,7.22,4.059,9.688l-2.515,12.695c0.373,1.1,0.771,2.189,1.156,3.284c2.882-2.132,6.243-4.276,9.884-6.223
	c0-1.963,0-8.518,0-9.833c-2.33-1.64-4.661-3.28-6.991-4.92c-1.067-0.751-0.046-2.52,1.03-1.762
	c1.987,1.398,3.974,2.797,5.961,4.195c0-5.277,0-10.554,0-15.831c0-0.658,0.51-0.986,1.02-0.986v-3.912
	c7.514,0,13.605,6.091,13.605,13.605c0,7.169-5.549,13.03-12.585,13.554c0,1.612,0,3.224,0,4.837
	c4.588-2.292,9.528-4.224,14.436-5.401v-69.783l-10.698-5.725L23.853,357.927z M553.693,377.272c0,7.169,5.549,13.03,12.585,13.554
	c0-1.314,0-2.629,0-3.943c-2.33-1.64-4.661-3.28-6.991-4.92c-1.067-0.751-0.046-2.52,1.03-1.762
	c1.987,1.398,3.974,2.797,5.961,4.195c0-5.277,0-10.554,0-15.831c0-0.658,0.51-0.986,1.02-0.986v-3.912
	C559.784,363.667,553.693,369.758,553.693,377.272z M526.341,313.183l0,0.003l-2.385,12.039l1.952,9.851h6.29
	c0.622,0,1.201,0.321,1.53,0.85l10.521,16.907v-57.737l-12.951-6.931L526.341,313.183z M190.903,408.515
	c-1.765,2.351-3.187,4.974-4.188,7.797c-0.043-0.015-0.088-0.025-0.132-0.039c7.932,2.625,13.921,9.503,15.253,17.947
	c3.454,2.431,6.909,4.862,10.363,7.293c0-11.394,0-22.787,0-34.181c0-1.42,1.102-2.129,2.203-2.128v-8.447
	C204.79,396.756,196.261,401.377,190.903,408.515z M491.697,335.077h17.104v-26.157l-10.78-5.769L491.697,335.077z"></path>
<path id="color_x5F_7_1_" fill="#46AE88" d="M237.911,408.515c3.684,4.908,5.868,11.007,5.868,17.616
	c0,15.482-11.979,28.157-27.172,29.285c0-6.249,0-12.497,0-18.746c0.069-0.056,0.139-0.102,0.206-0.169
	c3.721-3.721,7.442-7.442,11.163-11.163c2.008-2.008-1.107-5.124-3.116-3.116c-2.751,2.751-5.502,5.502-8.253,8.253
	c0-7.715,0-15.43,0-23.145c0-1.418-1.102-2.128-2.203-2.128v-8.447C224.017,396.756,232.551,401.376,237.911,408.515z
	 M28.984,356.918v3.912c0.51,0,1.02,0.329,1.02,0.986c0,3.573,0,7.146,0,10.72c1.274-1.274,2.548-2.548,3.822-3.822
	c0.93-0.93,2.373,0.513,1.443,1.443c-1.723,1.723-3.447,3.447-5.17,5.17c-0.031,0.031-0.063,0.052-0.095,0.078
	c0,2.891,0,5.782,0,8.672c7.035-0.524,12.585-6.384,12.585-13.554C42.589,363.009,36.498,356.918,28.984,356.918z M508.802,308.919
	L508.802,308.919l0,26.157h17.105l-6.325-31.926L508.802,308.919z M44.441,313.73L44.441,313.73l0,69.783
	c3.262-0.783,6.509-1.236,9.626-1.236c0.047,0,0.094,0.001,0.141,0.001v-18.394l-4.284-0.022l-2.34-2.995l13.674-21.973
	l-6.119-30.889L44.441,313.73z M186.583,416.273c-0.503-0.166-1.011-0.319-1.529-0.45c-0.095-0.024-0.192-0.044-0.287-0.067
	c-0.489-0.117-0.981-0.227-1.482-0.312c-0.222-0.038-0.449-0.062-0.673-0.093c-0.39-0.054-0.777-0.115-1.174-0.149
	c-0.645-0.055-1.295-0.089-1.954-0.089v6.515c0.85,0,1.699,0.548,1.699,1.642c0,5.951,0,11.901,0,17.852
	c2.122-2.122,4.244-4.244,6.365-6.366c1.549-1.549,3.952,0.855,2.403,2.403c-2.87,2.87-5.74,5.74-8.61,8.61
	c-0.051,0.051-0.106,0.087-0.159,0.13c0,4.816,0,9.632,0,14.447c0.084-0.006,0.17-0.005,0.254-0.012
	c0.156-0.013,0.311-0.027,0.466-0.044c0.632-0.067,1.259-0.153,1.875-0.271c0.058-0.011,0.114-0.027,0.171-0.038
	c0.568-0.114,1.126-0.253,1.677-0.408c0.152-0.043,0.303-0.085,0.453-0.131c0.582-0.177,1.156-0.372,1.716-0.593
	c0.095-0.038,0.187-0.081,0.282-0.12c0.486-0.2,0.962-0.417,1.43-0.649c0.143-0.071,0.286-0.14,0.428-0.214
	c0.523-0.273,1.035-0.563,1.533-0.874c0.11-0.069,0.216-0.144,0.325-0.215c0.419-0.272,0.828-0.558,1.227-0.857
	c0.122-0.091,0.245-0.18,0.365-0.274c0.463-0.361,0.913-0.739,1.346-1.134c0.099-0.09,0.193-0.184,0.29-0.276
	c0.373-0.352,0.734-0.717,1.082-1.094c0.084-0.091,0.17-0.178,0.252-0.27c0.403-0.451,0.788-0.918,1.154-1.4
	c0.068-0.09,0.133-0.182,0.2-0.273c2.406-3.265,3.964-7.194,4.332-11.466c0.056-0.649,0.099-1.301,0.099-1.964
	c0-1.211-0.122-2.391-0.305-3.551C200.504,425.776,194.515,418.898,186.583,416.273z M158.052,342.996L158.052,342.996l0,52.556
	c0.197-0.007,0.388-0.012,0.585-0.02c4.149-0.155,8.235-0.585,12.285-1.171l2.405-12.14l-8.49-42.857L158.052,342.996z
	 M217.327,376.994c0.724-0.489,1.398-1.046,2.013-1.661c0.308-0.308,0.601-0.63,0.878-0.966c0.554-0.672,1.046-1.398,1.465-2.169
	c0.121-0.223,0.222-0.457,0.331-0.688c-2.401-2.453-3.885-5.807-3.885-9.511c0-2.077,0.479-4.037,1.311-5.797
	c-0.034-0.035-0.064-0.074-0.099-0.109c-0.616-0.616-1.29-1.172-2.013-1.661c-0.362-0.244-0.736-0.472-1.122-0.682
	c-0.771-0.419-1.587-0.765-2.439-1.03c-1.278-0.398-2.637-0.612-4.046-0.612v3.912c0.51,0,1.02,0.329,1.02,0.986
	c0,3.573,0,7.146,0,10.72c1.274-1.274,2.548-2.548,3.822-3.822c0.93-0.93,2.373,0.513,1.443,1.443
	c-1.723,1.723-3.447,3.447-5.17,5.17c-0.031,0.031-0.064,0.052-0.095,0.078c0,2.891,0,5.782,0,8.673
	c1.045-0.078,2.06-0.26,3.025-0.56c0.852-0.265,1.668-0.612,2.439-1.03C216.591,377.466,216.965,377.239,217.327,376.994z
	 M189.383,353.705l-5.203,2.785l0,0v35.425c4.08-0.889,8.145-1.855,12.212-2.83L189.383,353.705z M242.233,353.345
	c-0.277-0.336-0.571-0.659-0.878-0.966c-0.616-0.616-1.29-1.172-2.014-1.661c-0.362-0.245-0.736-0.472-1.122-0.682
	c-0.771-0.419-1.587-0.765-2.439-1.03c-0.45-0.14-0.912-0.254-1.381-0.347c-0.001,0-0.002,0-0.003-0.001
	c-0.861-0.171-1.751-0.264-2.662-0.264v3.912c0.51,0,1.02,0.329,1.02,0.986c0,3.573,0,7.146,0,10.72
	c1.274-1.274,2.548-2.548,3.822-3.822c0.93-0.93,2.373,0.513,1.443,1.443c-1.723,1.723-3.447,3.447-5.17,5.17
	c-0.031,0.031-0.063,0.052-0.095,0.078c0,2.891,0,5.782,0,8.673c1.045-0.078,2.06-0.26,3.026-0.56
	c0.852-0.265,1.668-0.611,2.439-1.03c0.385-0.21,0.76-0.437,1.122-0.681c0.724-0.489,1.398-1.046,2.014-1.661
	c0.308-0.308,0.601-0.63,0.878-0.966c0.554-0.672,1.046-1.398,1.465-2.169c0.438-0.807,0.792-1.666,1.062-2.562
	c0-0.001,0.001-0.002,0.001-0.003c0.373-1.242,0.579-2.556,0.579-3.92c0-2.348-0.595-4.557-1.642-6.485
	C243.278,354.743,242.787,354.017,242.233,353.345z M253.722,362.386L253.722,362.386l0,20.329c3.052,0.13,6.095,0.318,9.129,0.563
	l-4.617-23.306L253.722,362.386z M403.065,498.229L403.065,498.229l0,40.126h18.404l-11.822-42.644L403.065,498.229z
	 M384.837,489.293L384.837,489.293l0,48.423L396,497.45l-3.115-11.235L384.837,489.293z M576.782,387.016l1.312,6.624
	c-0.646,1.889-1.304,3.772-1.987,5.643c-2.442-0.713-7.789-2.127-7.789-2.127s0-12.112,0-15.003
	c0.032-0.026,0.096-0.078,0.096-0.078s3.447-3.447,5.17-5.17c0.93-0.93-0.513-2.373-1.443-1.443
	c-1.274,1.274-2.548,2.548-3.822,3.822c0-3.573,0-7.146,0-10.72c0-0.657-0.51-0.985-1.02-0.986v-3.912
	c-7.514,0-13.605,6.091-13.605,13.605c0,7.169,5.549,13.03,12.585,13.554c0,1.939,0,5.816,0,5.816l-17.808-4.004v-22.855h3.356
	l1.383-2.552l-8.96-14.399v-57.737l0,0l12.951-6.931l15.151,76.481l0.001,0c5.009,2.007,8.551,6.898,8.551,12.625
	C580.903,381.095,579.321,384.544,576.782,387.016C576.782,387.016,576.782,387.016,576.782,387.016z M558.918,324.501
	c0-1.622-1.315-2.938-2.938-2.938c-1.623,0-2.938,1.315-2.938,2.938c0,1.622,1.315,2.938,2.938,2.938
	C557.603,327.439,558.918,326.124,558.918,324.501z M280.438,360.867l4.683-7.525l-1.517-7.657l-6.088,3.258l0,0v35.931
	c3.185,0.436,6.366,0.932,9.546,1.474V364.71v-0.826l-4.284-0.022L280.438,360.867z"></path>
<path id="color_x5F_6_1_" fill="#F47B4A" d="M142.25,367.654c0,0.487-0.395,0.881-0.881,0.881h-0.696
	c-0.487,0-0.881-0.395-0.881-0.881v-3.763h-4.098v4.235c0,1.132-0.917,2.049-2.049,2.049c-1.132,0-2.049-0.917-2.049-2.049v-4.235
	h-8.879v8.605c0,0.529-0.551,0.957-1.229,0.957c-0.679,0-1.229-0.429-1.229-0.957v-8.605h-18.715v6.905
	c0,0.487-0.395,0.881-0.881,0.881h-0.696c-0.487,0-0.881-0.395-0.881-0.881v-6.905h-3.552l-3.415-5.5v31.415
	c3.3,0.83,6.85,1.644,10.754,2.392v-19.207h15.473v20.201h-9.046h-0.742c10.535,1.67,23.562,2.785,40.731,2.574v-31.875h-7.035
	V367.654z M142.003,393.193H126.53v-1.981v-18.22h15.473V393.193z M321.555,359.246c-0.679,0-1.23-0.429-1.23-0.957v-2.445
	l-6.694-11.39v2.164c0,0.487-0.395,0.881-0.881,0.881h-0.696c-0.487,0-0.881-0.395-0.881-0.881v-6.348l-4.542-7.729l-19.569,32.17
	v21.637c3.652,0.622,7.304,1.313,10.959,2.062v-16.118h13.425v18.909c4.494,0.859,9.007,1.61,13.524,2.246v-29.7l-2.747-4.675
	C322.027,359.173,321.807,359.246,321.555,359.246z M306.323,362.525c-2.527,0-4.576-2.691-4.576-6.011
	c0-3.32,2.049-6.01,4.576-6.01c0.271,0,0.535,0.037,0.793,0.096c0.024,0.006,0.049,0.009,0.073,0.015
	c0.25,0.063,0.492,0.156,0.726,0.27c0.023,0.011,0.045,0.021,0.068,0.033c0.241,0.123,0.471,0.273,0.69,0.446
	c0.004,0.003,0.008,0.007,0.013,0.01c1.325,1.053,2.214,2.958,2.214,5.141C310.9,359.834,308.851,362.525,306.323,362.525z
	 M67.625,374.273h10.966v11.87c-0.458-0.125-0.912-0.247-1.366-0.368v-8.823h-7.971v6.912c-0.541-0.11-1.084-0.216-1.629-0.317
	V374.273z M108.153,331.241l-0.051-0.085v-13.977h7.457v14.062H108.153z M432.251,332.877c0,0.73-0.592,1.322-1.321,1.322
	c-0.73,0-1.322-0.592-1.322-1.322v-3.817h-21.144v2.349c0,0.73-0.592,1.322-1.321,1.322s-1.322-0.592-1.322-1.322v-2.349H383.21
	v10.572c0,0.73-0.592,1.322-1.322,1.322s-1.321-0.592-1.321-1.322V329.06h-3.358l0,14.857l10.548,16.949l-1.639,3.024h-3.978v31.779
	c0.275-0.019,0.555-0.032,0.829-0.052c12.308-0.883,24.167-3.275,36.007-5.779h-8.507v-21.713h16.631v19.998
	c3.839-0.804,7.688-1.58,11.559-2.294V329.06h-6.407V332.877z M401.667,389.838h-16.631v-21.713h16.631V389.838z M401.667,355.187
	h-16.631v-21.713h16.631V355.187z M427.099,355.187h-16.631v-21.713h16.631V355.187z M339.038,317.179h5.83v13.977l-5.83-8.403
	V317.179z M548.469,369.784v22.855c-2.026-0.414-4.073-0.821-6.144-1.22v-13.956h-13.055v11.585
	c-2.305-0.394-4.611-0.776-6.908-1.143v-10.442h-13.055v8.489c-3.093-0.429-6.122-0.824-9.073-1.184v-19.624l2.881,4.64h2.997v5.688
	c0,0.487,0.395,0.881,0.881,0.881h0.312c0.487,0,0.881-0.395,0.881-0.881v-5.688h15.79v7.26c0,0.446,0.465,0.807,1.037,0.807
	c0.573,0,1.037-0.362,1.037-0.807v-7.26h7.491v3.573c0,0.955,0.774,1.729,1.729,1.729s1.729-0.774,1.729-1.729v-3.573h3.458v3.037
	c0,0.487,0.395,0.881,0.881,0.881h0.312c0.487,0,0.881-0.395,0.881-0.881v-3.037H548.469z M479.573,378.543h9.253v4.977
	c-0.385-0.037-0.772-0.074-1.153-0.109v-2.608h-6.725v2.07c-0.465-0.031-0.922-0.061-1.375-0.088V378.543z"></path>
<path id="color_x5F_5_2_" fill="#903B1F" d="M380.567,329.06h-3.358v-3.23h3.358V329.06z M187.549,434.756
	c-2.122,2.122-4.244,4.244-6.365,6.366c0-5.951,0-11.901,0-17.852c0-1.093-0.85-1.641-1.699-1.642s-1.699,0.546-1.699,1.642
	c0,8.788,0,17.576,0,26.364c-3.309-2.329-6.618-4.658-9.928-6.986c-1.792-1.261-3.492,1.684-1.715,2.935
	c3.881,2.731,7.762,5.462,11.643,8.193c0,2.189,0,16.593,0,21.607c0,2.187,3.399,2.191,3.399,0c0-5.008,0-10.016,0-15.023
	c0-0.004,0-9.643,0-14.459c0.053-0.043,0.107-0.079,0.159-0.13c2.87-2.87,5.74-5.74,8.61-8.61
	C191.501,435.611,189.098,433.207,187.549,434.756z M529.271,377.462v1.671h5.423v10.865c0.417,0.075,0.832,0.151,1.248,0.227
	v-11.092h4.445v11.916c0.648,0.122,1.295,0.245,1.94,0.369v-13.956H529.271z M484.814,340.308l15.422,24.836v19.624
	c-3.983-0.486-7.81-0.906-11.41-1.247v-4.977h-9.253v4.242c-0.056-0.003-0.115-0.008-0.17-0.011c-3.114-0.189-5.95-0.295-8.408-0.3
	c-1.427-0.003-2.839,0.041-4.252,0.084c-0.825,0.025-1.65,0.05-2.471,0.089v-12.392h-5.663v12.773
	c-0.532,0.046-1.059,0.104-1.589,0.155v-12.928h-6.908v13.728c-3.848,0.523-7.664,1.148-11.454,1.847V329.06h-6.407v-3.23h2.736
	l3.671-5.912l5.204-8.381c0.233,0.207,0.533,0.344,0.87,0.344c0.73,0,1.321-0.592,1.321-1.321v-2.551l12.252-19.73l21.098,34.296
	v26.53L484.814,340.308z M457.02,335.603h-6.908v17.455h6.908V335.603z M464.272,335.603h-5.663v17.455h5.663V335.603z
	 M311.173,340.269v-4.097l-4.482-7.218l-19.629,31.908v0.01v3.011v0.826l19.569-32.17L311.173,340.269z M309.472,352.821
	c0.005,0.005,0.011,0.011,0.016,0.016c0.11,0.109,0.215,0.226,0.315,0.351c0.02,0.025,0.039,0.05,0.059,0.076
	c0.081,0.107,0.159,0.218,0.232,0.335c0.035,0.056,0.068,0.113,0.101,0.171c0.053,0.092,0.104,0.186,0.151,0.283
	c0.046,0.093,0.087,0.19,0.128,0.288c0.029,0.07,0.058,0.14,0.084,0.212c0.048,0.13,0.088,0.265,0.126,0.402
	c0.013,0.049,0.028,0.097,0.04,0.146c0.009,0.037,0.022,0.073,0.03,0.11c-0.275-1.619-1.024-3.002-2.068-3.838
	c-0.004-0.003-0.008-0.007-0.013-0.01c-0.218-0.174-0.45-0.322-0.69-0.446c-0.022-0.012-0.045-0.022-0.068-0.033
	c-0.234-0.115-0.476-0.207-0.726-0.27c-0.024-0.006-0.049-0.009-0.073-0.015c-0.258-0.06-0.522-0.096-0.793-0.096
	c-2.527,0-4.576,2.691-4.576,6.01c0,3.32,2.049,6.011,4.576,6.011c2.527,0,4.576-2.691,4.576-6.011c0,2.565-1.583,4.645-3.536,4.645
	c-1.041,0-1.967-0.602-2.614-1.542c0,0,0,0-0.001-0.001c-0.142-0.206-0.27-0.425-0.382-0.663c-0.001-0.002-0.002-0.004-0.003-0.006
	c-0.109-0.231-0.205-0.472-0.283-0.727c-0.021-0.067-0.031-0.14-0.049-0.208c-0.052-0.198-0.105-0.396-0.136-0.605
	c-0.044-0.289-0.069-0.587-0.069-0.893c0-0.641,0.099-1.252,0.278-1.808c0.09-0.278,0.199-0.542,0.326-0.789
	c0.381-0.741,0.921-1.33,1.556-1.683c0.423-0.235,0.888-0.365,1.376-0.365c0.205,0,0.402,0.033,0.596,0.079
	c0.083,0.019,0.164,0.042,0.245,0.068c0.084,0.028,0.166,0.064,0.247,0.101c0.224,0.096,0.434,0.228,0.635,0.376
	c-0.015-0.012-0.03-0.025-0.046-0.036c0.018,0.013,0.04,0.02,0.058,0.033l-0.005,0.008
	C309.225,352.596,309.351,352.703,309.472,352.821z M427.099,368.125v2.129h-6.908v17.455h6.908v0.414
	c-2.305,0.483-4.607,0.971-6.908,1.459c-0.405,0.086-0.81,0.171-1.215,0.256h-0.374h-8.133v-21.713H427.099z M418.601,370.254
	h-5.663v17.455h5.663V370.254z M236.577,360.189c-1.274,1.274-2.548,2.548-3.822,3.822c0-3.573,0-7.146,0-10.72
	c0-0.657-0.51-0.985-1.02-0.986c-0.51,0-1.02,0.328-1.02,0.986c0,5.277,0,10.554,0,15.831c-1.987-1.398-3.974-2.797-5.961-4.195
	c-1.076-0.758-2.097,1.011-1.03,1.762c2.33,1.64,4.661,3.28,6.991,4.92c0,1.314,0,8.852,0,11.307
	c0.675-0.046,1.345-0.112,2.023-0.146c0.006,0,0.012,0,0.017-0.001c0-2.406,0-12.999,0-15.89c0.032-0.026,0.065-0.047,0.095-0.078
	c1.723-1.723,3.447-3.447,5.17-5.17C238.95,360.702,237.507,359.259,236.577,360.189z M401.667,368.125v2.129h-6.908v17.455h6.908
	v2.129h-16.631v-21.713H401.667z M393.169,370.254h-5.663v17.455h5.663V370.254z M401.667,333.474v2.129h-6.908v17.455h6.908v2.129
	h-16.631v-21.713H401.667z M393.169,335.603h-5.663v17.455h5.663V335.603z M310.81,355.525c0.004,0.022,0.007,0.044,0.01,0.065
	c0.004,0.024,0.01,0.047,0.014,0.071C310.829,355.614,310.816,355.571,310.81,355.525z M54.208,360.862v0.01v21.405
	c3.924,0.007,7.511,0.322,10.959,0.852c0.827,0.127,1.645,0.267,2.459,0.417v-9.274h10.966v11.87
	c4.198,1.142,8.584,2.421,13.524,3.664v-31.415l-18.279-29.437L54.208,360.862z M313.632,344.453l6.694,11.39v-4.932l-6.694-10.78
	V344.453z M298.021,388.41c0.819,0.168,1.639,0.339,2.459,0.513c0.543,0.115,1.086,0.233,1.629,0.351v-12.321h7.971v13.987
	c0.455,0.089,0.911,0.175,1.366,0.262v-18.909h-13.425V388.41z M427.099,333.474v2.129h-6.908v17.455h6.908v2.129h-16.631v-21.713
	H427.099z M418.601,335.603h-5.663v17.455h5.663V335.603z M509.308,377.462v1.671h5.423v7.596c0.415,0.061,0.831,0.124,1.247,0.187
	v-7.783h4.445v8.464c0.646,0.102,1.292,0.202,1.94,0.306v-10.442H509.308z M352.325,331.241v-14.062h-7.457v13.977l0.051,0.085
	H352.325z M378.792,363.891h3.347v0.53v31.249c-17.969,1.227-37.578,0.539-57.169-2.222v-29.7l-2.747-4.675
	c0.331-0.172,0.562-0.45,0.562-0.783v-3.418l2.186,3.52l3.415,5.5h13.934v3.142c0,1.132,0.917,2.049,2.049,2.049
	c1.132,0,2.049-0.917,2.049-2.049v-3.142h29.917v7.998c0,0.487,0.395,0.881,0.881,0.881h0.696c0.487,0,0.881-0.395,0.881-0.881
	V363.891z M342.151,374.972h-6.427v16.24h6.427V374.972z M348.898,374.972h-5.269v16.24h5.269V374.972z M365.812,374.972h-6.427
	v16.24h6.427V374.972z M372.559,374.972h-5.268v16.24h5.268V374.972z M224.859,422.224c-2.751,2.751-5.502,5.502-8.253,8.253
	c0-7.715,0-15.43,0-23.145c0-1.418-1.102-2.128-2.203-2.128c-1.102-0.001-2.203,0.708-2.203,2.128c0,11.394,0,22.787,0,34.181
	c-3.454-2.431-6.909-4.862-10.363-7.293c0.183,1.16,0.305,2.34,0.305,3.551c0,0.663-0.043,1.315-0.099,1.964
	c3.386,2.383,6.771,4.765,10.157,7.147c0,2.848,0,21.945,0,28.013c0,2.835,4.406,2.84,4.406,0c0-6.068,0-31.976,0-38.224
	c0.069-0.056,0.139-0.102,0.206-0.169c3.721-3.721,7.442-7.442,11.163-11.163C229.982,423.332,226.867,420.215,224.859,422.224z
	 M572.14,375.462c-1.274,1.274-2.548,2.548-3.822,3.822c0-3.573,0-7.146,0-10.72c0-0.657-0.51-0.985-1.02-0.986
	c-0.51,0-1.02,0.328-1.02,0.986c0,5.277,0,10.554,0,15.831c-1.987-1.398-3.974-2.797-5.961-4.195
	c-1.076-0.757-2.097,1.011-1.03,1.762c2.33,1.64,4.661,3.28,6.991,4.92c0,1.314,0,7.821,0,9.76c0.686,0.171,1.37,0.342,2.041,0.514
	c0-2.11,0-12.112,0-15.003c0.032-0.026,0.065-0.047,0.096-0.078c1.723-1.723,3.447-3.447,5.17-5.17
	C574.513,375.975,573.07,374.532,572.14,375.462z M108.101,317.179h-5.83v5.574l0.001,0.001l5.83,8.402V317.179z M408.464,329.06
	h21.144v-3.23h-21.144V329.06z M142.003,372.991v20.201H126.53v-1.981h6.427v-16.24h-6.427v-1.981H142.003z M139.704,374.972h-5.269
	v16.24h5.269V374.972z M118.342,372.991v20.201h-9.788c-1.979-0.314-3.871-0.646-5.685-0.994v-0.987h6.427v-16.24h-6.427v-1.981
	H118.342z M116.044,374.972h-5.269v16.24h5.269V374.972z M383.21,329.06h22.612v-3.23H383.21V329.06z M208.7,386.242
	c0.679-0.146,1.36-0.284,2.041-0.425c0-2.183,0-12.332,0-15.223c0.032-0.026,0.065-0.047,0.095-0.078
	c1.723-1.723,3.447-3.447,5.17-5.17c0.93-0.93-0.513-2.373-1.443-1.443c-1.274,1.274-2.548,2.548-3.822,3.822
	c0-3.573,0-7.146,0-10.72c0-0.657-0.51-0.985-1.02-0.986c-0.51,0-1.02,0.328-1.02,0.986c0,5.277,0,10.554,0,15.831
	c-1.987-1.398-3.974-2.797-5.961-4.195c-1.076-0.758-2.097,1.011-1.03,1.762c2.331,1.64,4.661,3.28,6.991,4.92
	C208.7,376.638,208.7,383.917,208.7,386.242z M33.826,368.713c-1.274,1.274-2.548,2.548-3.822,3.822c0-3.573,0-7.146,0-10.72
	c0-0.657-0.51-0.985-1.02-0.986c-0.51,0-1.02,0.328-1.02,0.986c0,5.277,0,10.554,0,15.831c-1.987-1.398-3.974-2.797-5.961-4.195
	c-1.076-0.757-2.097,1.011-1.03,1.762c2.331,1.64,4.661,3.28,6.991,4.92c0,1.314,0,7.87,0,9.833
	c0.671-0.359,1.353-0.709,2.041-1.053c0-1.612,0-10.618,0-13.509c0.032-0.026,0.064-0.047,0.095-0.078
	c1.723-1.723,3.447-3.447,5.17-5.17C36.199,369.226,34.757,367.783,33.826,368.713z"></path>
<path id="color_x5F_4_2_" fill="#AEDFE6" d="M118.215,231.087H55.319c-5.665,0-10.257-4.592-10.257-10.257
	s4.592-10.257,10.257-10.257h27.328c-0.452-1.156-0.702-2.413-0.702-3.73v0c0-5.664,4.592-10.257,10.257-10.257h28.634
	c5.664,0,10.257,4.592,10.257,10.257v0c0,1.316-0.251,2.573-0.702,3.73h0.139L118.215,231.087z M557.2,288.164l-12.951-65.376
	l0,72.307l0,0L557.2,288.164z M44.44,254.001l0,59.727l0,0l10.698-5.725L44.44,254.001z M367.29,391.212h5.268v-16.24l-5.268,6.494
	V391.212z M458.609,383.028c1.876-0.162,3.764-0.289,5.663-0.381v-12.392l-5.663,6.98V383.028z M514.731,386.729v-0.579
	l-0.419,0.516C514.451,386.687,514.592,386.709,514.731,386.729z M264.122,179.386l12.314-20.513h-25.357
	c0.452-1.156,0.702-2.413,0.702-3.73l0,0c0-5.665-4.592-10.257-10.257-10.257H212.89c-5.665,0-10.257,4.592-10.257,10.257l0,0
	c0,1.316,0.251,2.573,0.702,3.73h-4.665c-5.665,0-10.257,4.592-10.257,10.257c0,5.665,4.592,10.257,10.257,10.257H264.122z
	 M534.694,389.998v-3.848l-2.73,3.365C532.875,389.675,533.785,389.835,534.694,389.998z M457.02,383.183v-3.989l-3.529,4.349
	C454.662,383.406,455.842,383.296,457.02,383.183z M365.812,391.212v-7.923l-6.427,7.923H365.812z M77.226,385.775v-8.823
	l-4.246,7.741C74.387,385.03,75.798,385.394,77.226,385.775z M403.065,471.966L403.065,471.966L403.065,471.966l0,0.001v26.261l0,0
	l6.582-2.517L403.065,471.966L403.065,471.966z M393.169,387.71v-6.98l-5.663,6.98H393.169z M487.673,383.412v-2.608l-1.365,2.489
	C486.762,383.332,487.211,383.369,487.673,383.412z M303.733,389.623c2.108,0.467,4.226,0.9,6.346,1.316v-13.987l-6.886,12.555
	C303.374,389.546,303.554,389.583,303.733,389.623z M418.601,387.71v-6.98l-5.663,6.98H418.601z M535.941,390.225
	c1.488,0.271,2.97,0.545,4.445,0.824v-11.916l-4.445,5.479V390.225z M310.82,355.59c-0.003-0.022-0.007-0.044-0.01-0.065
	c-0.018-0.105-0.033-0.211-0.056-0.313c-0.008-0.038-0.021-0.073-0.03-0.11c-0.012-0.049-0.027-0.098-0.04-0.146
	c-0.038-0.137-0.079-0.271-0.126-0.402c-0.026-0.072-0.055-0.142-0.084-0.212c-0.04-0.098-0.082-0.195-0.128-0.288
	c-0.048-0.097-0.098-0.191-0.151-0.283c-0.033-0.058-0.066-0.115-0.101-0.171c-0.074-0.116-0.151-0.228-0.232-0.335
	c-0.02-0.025-0.039-0.051-0.059-0.076c-0.1-0.124-0.204-0.242-0.315-0.351c-0.005-0.005-0.011-0.011-0.016-0.016
	c-0.121-0.117-0.247-0.225-0.378-0.323l-4.344,7.118c0.647,0.94,1.573,1.542,2.614,1.542c1.953,0,3.536-2.079,3.536-4.645
	c0-0.282-0.026-0.554-0.063-0.821C310.832,355.658,310.826,355.624,310.82,355.59z M342.151,391.212v-7.923l-6.427,7.923H342.151z
	 M384.837,457.183L384.837,457.183l0,0.001v32.108l0,0l8.048-3.078L384.837,457.183L384.837,457.183z M457.02,353.058v-8.516
	l-6.908,8.516H457.02z M343.629,391.212h5.269v-16.24l-5.269,6.495V391.212z M420.19,387.71h6.908v-17.455l-6.908,8.516V387.71z
	 M458.609,353.058h5.663v-17.455l-5.663,6.98V353.058z M141.02,193.095l42.148,70.217l-0.002,0.001l-7.02,4.557l-17.74-11.216
	l-17.389,11.231v0.113l-23.906,46.504v-1.831h-9.011h-0.19v4.508l-5.64,0v5.574l0.001,0.001H72.488l0,0
	c-0.738,0-1.423,0.381-1.813,1.007l-3.609,5.8l0-45.598l4.816,24.312l0-0.001l27.03-45.03l7.322,4.642l17.391-11.233l17.391,11.233
	L141.02,193.095z M101.003,287.88c2.835,0,2.84-4.406,0-4.406C98.168,283.474,98.163,287.88,101.003,287.88z M110.452,304.085
	c-2.835,0-2.84,4.406,0,4.406C113.287,308.492,113.292,304.085,110.452,304.085z M115.005,287.88c1.338,0,2.676,0,4.015,0
	c2.835,0,2.84-4.406,0-4.406c-3.786,0-7.572,0-11.359,0c-2.835,0-2.84,4.406,0,4.406c0.979,0,0.49,0,1.469,0
	c1.518,0,1.518,2.644,0,2.644c-4.113,0-6.756,0-10.869,0c-2.835,0-2.84,4.406,0,4.406c1.338,0,1.354,0,2.693,0
	c1.42,0,2.448,0.245,2.448,1.714c0,1.567-1.126,1.714-2.448,1.714c-2.835,0-2.693,4.406,0.147,4.406c3.231,0,6.463,0,9.694,0
	c2.835,0,2.84-4.406,0-4.406c-1.371,0-0.636,0-2.007,0c-2.35,0-2.644-3.427,0-3.427c3.084,0,4.064,0,7.148,0
	c2.835,0,2.84-4.406,0-4.406c-0.31,0-0.62,0-0.93,0C113.096,290.524,112.998,287.88,115.005,287.88z M122.153,290.524
	c-2.835,0-2.84,4.406,0,4.406C124.988,294.93,124.993,290.524,122.153,290.524z M134.436,391.212h5.269v-16.24l-5.269,6.494V391.212
	z M394.759,387.71h6.908v-17.455l-6.908,8.516V387.71z M515.979,386.916c1.475,0.221,2.957,0.448,4.445,0.682v-8.464l-4.445,5.479
	V386.916z M542.534,369.784h5.936h3.356l1.383-2.552h-10.675V369.784z M508.802,248.736v60.182l0,0l10.78-5.769L508.802,248.736z
	 M328.385,363.891h13.934v-3.024h-12.073L328.385,363.891z M418.601,353.058v-6.98l-5.663,6.98H418.601z M503.117,369.784h2.997
	v-2.552h-1.427L503.117,369.784z M387.757,360.867h-8.964v3.024h7.325L387.757,360.867z M346.417,363.891h29.917v-3.024h-29.917
	V363.891z M432.251,322.579v3.251h2.736l-2-3.251H432.251z M277.516,314.952l0,33.99l0,0l6.088-3.258L277.516,314.952z
	 M142.25,363.891h11.013l1.639-3.024H142.25V363.891z M337.483,312.671v4.508h7.194v-4.508v0L337.483,312.671L337.483,312.671z
	 M184.18,327.439l0,29.051l0,0l5.203-2.785L184.18,327.439z M135.693,363.891h4.098v-3.024h-4.098V363.891z M380.567,322.579h-9.396
	l0,0l1.762,3.251h7.634V322.579z M131.594,360.867h-8.879v3.024h8.879V360.867z M101.541,363.891h18.715v-3.024h-18.715V363.891z
	 M420.19,353.058h6.908v-17.455l-6.908,8.516V353.058z M342.784,219.652l-22.799-14.415l-22.349,14.434v0.145L232.785,345.97
	l-34.329-57.19l15.587-25.967l20.709-34.5l8.767-14.605l9.41,5.965l22.351-14.437l22.351,14.436l0.006-96.123l29.815,49.671
	c-4.651,1.73-7.971,6.196-7.971,11.45c0,6.753,5.474,12.227,12.227,12.227h9.956l10.142,16.896l-0.002,0.001L342.784,219.652z
	 M240.487,289.838c0-2.596-2.104-4.7-4.7-4.7c-2.596,0-4.7,2.104-4.7,4.7c0,2.596,2.104,4.7,4.7,4.7
	C238.383,294.538,240.487,292.434,240.487,289.838z M279.263,226.975c0-1.622-1.315-2.938-2.938-2.938
	c-1.622,0-2.938,1.315-2.938,2.938c0,1.622,1.315,2.938,2.938,2.938C277.948,229.912,279.263,228.597,279.263,226.975z
	 M158.052,305.114v37.881l0,0l6.785-3.631L158.052,305.114z M95.531,363.891h3.552v-3.024h-1.691L95.531,363.891z M408.464,325.829
	h21.144v-3.251h-21.144V325.829z M253.722,337.194v25.191l0,0l4.512-2.415L253.722,337.194z M110.775,391.212h5.269v-16.24
	l-5.269,6.494V391.212z M508.188,369.784h15.79v-2.552h-15.79V369.784z M132.957,391.212v-7.923l-6.427,7.923H132.957z
	 M394.759,353.058h6.908v-17.455l-6.908,8.516V353.058z M405.821,322.579H383.21v3.251h22.612V322.579z M109.297,391.212v-7.923
	l-6.427,7.923H109.297z M533.544,367.232h-7.491v2.552h7.491V367.232z M537.002,369.784h3.458v-2.552h-3.458V369.784z
	 M530.434,219.121h-3.336c0.323-0.827,0.502-1.725,0.502-2.667l0,0c0-4.05-3.284-7.333-7.333-7.333h-20.473
	c-4.05,0-7.333,3.283-7.333,7.333l0,0c0,0.941,0.179,1.84,0.503,2.667h-19.539c-1.118,0-2.174,0.258-3.122,0.705l-16.046-26.731
	l-0.005,74.791l-17.391-11.233l-17.391,11.233l-7.322-4.642l-11.026,18.368h46.133l6.999-13.615v-0.113l17.389-11.231l17.74,11.216
	l7.02-4.557l0.002-0.001L479.531,235.2l-0.848-1.413h51.751c4.05,0,7.333-3.283,7.333-7.333S534.484,219.121,530.434,219.121z
	 M393.169,353.058v-6.98l-5.663,6.98H393.169z M309.099,352.49c-0.018-0.014-0.039-0.02-0.058-0.033
	c0.016,0.011,0.03,0.024,0.046,0.036c0.002,0.002,0.005,0.004,0.007,0.005l0,0L309.099,352.49z"></path>
<path id="color_x5F_3_2_" fill="#FFFFFF" d="M303.896,357.407c-0.044-0.289-0.069-0.587-0.069-0.893
	c0-0.641,0.099-1.252,0.278-1.808c0.09-0.278,0.199-0.542,0.326-0.789c0.381-0.741,0.921-1.33,1.556-1.683
	c0.423-0.235,0.888-0.365,1.376-0.365c0.205,0,0.402,0.033,0.596,0.079c0.083,0.019,0.164,0.042,0.245,0.068
	c0.084,0.028,0.166,0.064,0.247,0.101c0.224,0.096,0.434,0.228,0.635,0.376c0.002,0.002,0.005,0.004,0.007,0.005l-4.344,7.118
	c0,0,0,0-0.001-0.001c-0.142-0.206-0.27-0.425-0.382-0.663c-0.001-0.002-0.002-0.004-0.003-0.006
	c-0.109-0.231-0.205-0.472-0.283-0.727c-0.021-0.067-0.031-0.14-0.049-0.208C303.98,357.814,303.927,357.617,303.896,357.407z
	 M342.151,383.289v-8.317h-6.427v16.24L342.151,383.289z M343.629,381.467l5.269-6.495h-5.269V381.467z M205.237,330.376
	c0,1.622,1.315,2.938,2.938,2.938c1.622,0,2.938-1.315,2.938-2.938c0-1.622-1.315-2.938-2.938-2.938
	C206.552,327.439,205.237,328.754,205.237,330.376z M458.609,370.254v6.98l5.663-6.98H458.609z M457.02,344.542v-8.939h-6.908
	v17.455L457.02,344.542z M418.601,335.603h-5.663v17.455l5.663-6.98V335.603z M161.761,284.551c0,1.622,1.315,2.938,2.938,2.938
	c1.622,0,2.938-1.315,2.938-2.938c0-1.622-1.315-2.938-2.938-2.938C163.076,281.613,161.761,282.928,161.761,284.551z
	 M420.19,335.603v8.516l6.908-8.516H420.19z M458.609,335.603v6.98l5.663-6.98H458.609z M520.424,379.133h-4.445v5.479
	L520.424,379.133z M394.759,335.603v8.516l6.908-8.516H394.759z M412.938,387.71l5.663-6.98v-10.475h-5.663V387.71z M420.19,378.77
	l6.908-8.516h-6.908V378.77z M372.559,374.972h-5.268v6.494L372.559,374.972z M394.759,378.77l6.908-8.516h-6.908V378.77z
	 M393.169,335.603h-5.663v17.455l5.663-6.98V335.603z M365.812,383.289v-8.317h-6.427v16.24L365.812,383.289z M393.169,370.254
	h-5.663v17.455l5.663-6.98V370.254z M377.215,372.77h0.696c0.487,0,0.881-0.395,0.881-0.881v-11.022h8.964l-10.548-16.949
	l-12.543-20.156c-0.39-0.626-1.075-1.007-1.813-1.007h-10.528v8.487h-7.405l-0.051-0.085l-5.83-8.403l0.001,0.001h-33.695
	c0.737,0,1.423,0.381,1.813,1.007l4.018,6.456v16.4c0,0.487,0.395,0.881,0.881,0.881h0.696c0.487,0,0.881-0.395,0.881-0.881v-12.448
	l6.694,10.756v13.364c0,0.529,0.551,0.957,1.23,0.957c0.252,0,0.473-0.073,0.668-0.174c0.331-0.172,0.562-0.45,0.562-0.783v-9.413
	l7.462,11.99h12.073v6.166c0,1.132,0.917,2.049,2.049,2.049c1.132,0,2.049-0.917,2.049-2.049v-6.166h29.917v11.022
	C376.333,372.375,376.728,372.77,377.215,372.77z M283.963,278.676c0,1.622,1.315,2.938,2.938,2.938
	c1.622,0,2.938-1.315,2.938-2.938c0-1.622-1.315-2.938-2.938-2.938C285.278,275.738,283.963,277.053,283.963,278.676z
	 M158.052,342.996l0-37.881l-6.785,34.25L158.052,342.996z M277.516,348.942v-33.989l-6.088,30.731L277.516,348.942z
	 M74.301,323.761l23.091,37.106h1.691v9.929c0,0.487,0.395,0.881,0.881,0.881h0.696c0.487,0,0.881-0.395,0.881-0.881v-9.929h18.715
	v11.629c0,0.529,0.551,0.957,1.229,0.957c0.679,0,1.229-0.429,1.229-0.957v-11.629h8.879v7.259c0,1.132,0.917,2.049,2.049,2.049
	c1.132,0,2.049-0.917,2.049-2.049v-7.259h4.098v6.788c0,0.487,0.395,0.881,0.881,0.881h0.696c0.487,0,0.881-0.395,0.881-0.881
	v-6.788h12.653l-23.091-37.106c-0.39-0.626-1.075-1.007-1.813-1.007h-14.44v8.487h-7.405l-0.051-0.085l-5.83-8.402H74.75l0,0l0,0
	h-2.262C73.226,322.754,73.911,323.135,74.301,323.761z M107.911,312.671l0.19,4.508h9.011v-4.508h-9.011H107.911z M353.879,312.671
	h-9.011h-0.19v4.508l9.201,0V312.671z M535.941,384.612l4.445-5.479h-4.445V384.612z M544.248,222.791l-12.951,65.375l12.951,6.93
	V222.791z M191.939,252.556c0,5.665,4.592,10.257,10.257,10.257h11.848l20.709-34.5h-18.338c-5.665,0-10.257,4.592-10.257,10.257
	l0,0c0,1.316,0.251,2.573,0.702,3.73h-4.665C196.531,242.299,191.939,246.892,191.939,252.556z M470.791,271.625
	c0,1.622,1.315,2.938,2.938,2.938c1.622,0,2.938-1.315,2.938-2.938c0-1.622-1.315-2.938-2.938-2.938
	C472.107,268.688,470.791,270.003,470.791,271.625z M109.297,383.289v-8.317h-6.427v16.24L109.297,383.289z M357.941,297.28
	c2.835,0,2.84-4.406,0-4.406C355.105,292.874,355.1,297.28,357.941,297.28z M344.917,292.874c-4.113,0-6.756,0-10.869,0
	c-2.835,0-2.84,4.406,0,4.406c1.338,0,1.355,0,2.693,0c1.42,0,2.448,0.245,2.448,1.714c0,1.567-1.126,1.714-2.448,1.714
	c-2.835,0-2.693,4.406,0.147,4.406c3.231,0,6.463,0,9.694,0c2.835,0,2.84-4.406,0-4.406c-1.371,0-0.637,0-2.007,0
	c-2.35,0-2.644-3.427,0-3.427c3.085,0,4.064,0,7.148,0c2.835,0,2.84-4.406,0-4.406c-0.31,0-0.62,0-0.93,0
	c-1.909,0-2.007-2.644,0-2.644c1.338,0,2.677,0,4.015,0c2.835,0,2.84-4.406,0-4.406c-3.786,0-7.572,0-11.358,0
	c-2.835,0-2.84,4.406,0,4.406c0.979,0,0.49,0,1.469,0C346.435,290.23,346.435,292.874,344.917,292.874z M346.239,306.435
	c-2.835,0-2.84,4.406,0,4.406C349.075,310.842,349.079,306.435,346.239,306.435z M306.289,308.051c0-2.271-1.841-4.113-4.113-4.113
	c-2.271,0-4.113,1.841-4.113,4.113c0,2.271,1.841,4.113,4.113,4.113C304.447,312.164,306.289,310.322,306.289,308.051z
	 M336.79,285.824c-2.835,0-2.84,4.406,0,4.406C339.625,290.23,339.63,285.824,336.79,285.824z M332.726,236.962
	c-2.271,0-4.113,1.841-4.113,4.113c0,2.271,1.841,4.113,4.113,4.113c2.271,0,4.113-1.841,4.113-4.113
	C336.839,238.803,334.998,236.962,332.726,236.962z M126.53,391.212l6.427-7.923v-8.317h-6.427V391.212z M134.436,381.467
	l5.269-6.494h-5.269V381.467z M116.044,374.972h-5.269v6.494L116.044,374.972z M396.482,495.711l6.582,2.517v-26.261
	L396.482,495.711z M251.416,473.729L251.416,473.729c0-9.41-7.628-17.038-17.038-17.038h-17.772v18.204c0,2.84-4.406,2.835-4.406,0
	v-18.204h-20.274c0,0-0.346,0.232-0.457,0.301c-0.498,0.311-1.01,0.601-1.533,0.874c-0.141,0.074-0.285,0.143-0.428,0.214
	c-0.468,0.232-0.944,0.449-1.43,0.649c-0.095,0.039-0.187,0.083-0.282,0.12c-0.561,0.221-1.135,0.416-1.716,0.593
	c-0.15,0.046-0.301,0.088-0.453,0.131c-0.551,0.155-1.11,0.294-1.677,0.408c-0.057,0.012-0.113,0.027-0.171,0.038
	c-0.616,0.118-1.243,0.204-1.875,0.271c-0.155,0.017-0.31,0.031-0.466,0.044c-0.085,0.007-0.169,0.018-0.254,0.024v15.023
	c0,2.191-3.399,2.187-3.399,0v-15.04c-3.952-0.294-7.622-1.588-10.75-3.651h-0.808c-9.41,0-17.038,7.628-17.038,17.038v0
	c0,9.41,7.628,17.038,17.038,17.038h68.151C243.788,490.767,251.416,483.139,251.416,473.729z M107.906,456.691H47.539
	c7.629,11.971,16.095,23.356,25.314,34.076h35.054c9.41,0,17.038-7.628,17.038-17.038v0
	C124.944,464.319,117.316,456.691,107.906,456.691z M376.789,486.215l8.048,3.077l0-32.108L376.789,486.215z M426.336,520.142
	h-9.916l5.049,18.213h0h-59.134l5.049-18.213h-9.199c-9.41,0-17.038,7.628-17.038,17.038l0,0c0,9.41,7.628,17.038,17.038,17.038
	h68.151c9.41,0,17.038-7.628,17.038-17.038l0,0C443.374,527.77,435.746,520.142,426.336,520.142z M403.064,471.967L403.064,471.967
	L403.064,471.967L403.064,471.967z M272.213,551.133c-10.184,0-20.367,0-30.551,0c-8.506,0-8.52,13.219,0,13.219
	c10.184,0,20.367,0,30.551,0C280.719,564.352,280.733,551.133,272.213,551.133z M384.837,457.183L384.837,457.183L384.837,457.183
	L384.837,457.183z M275.738,467.707c-8.506,0-8.52,13.219,0,13.219C284.244,480.926,284.258,467.707,275.738,467.707z
	 M119.46,435.247c5.67,0,5.68-8.813,0-8.813c-10.184,0-20.367,0-30.551,0c-5.67,0-5.68,8.813,0,8.813
	C99.093,435.247,109.277,435.247,119.46,435.247z M44.44,254.001L44.44,254.001V254V254.001V254v0.002l-10.698,54.001l10.698,5.724
	V254.001z M110.452,304.085c-2.835,0-2.84,4.406,0,4.406C113.287,308.492,113.292,304.085,110.452,304.085z M122.153,294.93
	c2.835,0,2.84-4.406,0-4.406C119.318,290.524,119.313,294.93,122.153,294.93z M106.234,267.886l17.391-11.233l17.391,11.233
	l0.005-74.791l-0.001,0.002l-0.001,0.002l-10.49,17.476l-12.313,20.513l-19.303,32.157l0,0L106.234,267.886z M58.782,325.779
	l7.979,4.27l0.304-0.489v-45.596L58.782,325.779L58.782,325.779z M339.973,432.799L339.973,432.799c0,5.408,4.384,9.792,9.792,9.792
	h206.404c3.588-6.385,6.945-12.917,10.062-19.584H349.764C344.357,423.007,339.973,427.391,339.973,432.799z M101.003,287.88
	c2.835,0,2.84-4.406,0-4.406C98.168,283.474,98.163,287.88,101.003,287.88z M98.261,294.93c1.338,0,1.354,0,2.693,0
	c1.42,0,2.448,0.245,2.448,1.714c0,1.567-1.126,1.714-2.448,1.714c-2.835,0-2.693,4.406,0.147,4.406c3.231,0,6.463,0,9.694,0
	c2.835,0,2.84-4.406,0-4.406c-1.371,0-0.636,0-2.007,0c-2.35,0-2.644-3.427,0-3.427c3.084,0,4.064,0,7.148,0
	c2.835,0,2.84-4.406,0-4.406c-0.31,0-0.62,0-0.93,0c-1.909,0-2.007-2.644,0-2.644c1.338,0,2.676,0,4.015,0
	c2.835,0,2.84-4.406,0-4.406c-3.786,0-7.572,0-11.359,0c-2.835,0-2.84,4.406,0,4.406c0.979,0,0.49,0,1.469,0
	c1.518,0,1.518,2.644,0,2.644c-4.113,0-6.756,0-10.869,0C95.426,290.524,95.421,294.93,98.261,294.93z M219.337,551.133
	c-8.506,0-8.52,13.219,0,13.219C227.843,564.352,227.857,551.133,219.337,551.133z M340.364,131.211
	c0-1.947-1.578-3.525-3.525-3.525c-1.947,0-3.525,1.578-3.525,3.525c0,1.947,1.578,3.525,3.525,3.525
	C338.786,134.736,340.364,133.157,340.364,131.211z M287.409,77.16h52.123c4.823,0,8.733-3.91,8.733-8.733v0
	c0-4.823-3.91-8.733-8.733-8.733h-21.163c0.385-0.985,0.598-2.055,0.598-3.176v0c0-4.823-3.91-8.733-8.733-8.733h-10.718
	c-4.823,0-8.733,3.91-8.733,8.733v0c0,1.121,0.214,2.191,0.598,3.176h-3.972c-4.823,0-8.733,3.91-8.733,8.733v0
	C278.675,73.25,282.586,77.16,287.409,77.16z M386.19,226.975c0-2.271-1.841-4.113-4.112-4.113s-4.113,1.841-4.113,4.113
	c0,2.271,1.841,4.113,4.113,4.113S386.19,229.246,386.19,226.975z M283.963,95.372c0,2.271,1.841,4.113,4.113,4.113
	s4.113-1.841,4.113-4.113s-1.841-4.112-4.113-4.112S283.963,93.101,283.963,95.372z M471.379,165.286
	c1.622,0,2.938-1.315,2.938-2.938c0-1.622-1.315-2.938-2.938-2.938c-1.622,0-2.938,1.315-2.938,2.938
	C468.441,163.971,469.757,165.286,471.379,165.286z M509.567,194.662c1.947,0,3.525-1.578,3.525-3.525
	c0-1.947-1.578-3.525-3.525-3.525c-1.947,0-3.525,1.578-3.525,3.525C506.042,193.083,507.62,194.662,509.567,194.662z
	 M148.756,121.81h40.373c4.823,0,8.733-3.91,8.733-8.733v0c0-4.823-3.91-8.733-8.733-8.733h-3.972
	c0.385-0.985,0.598-2.055,0.598-3.176v0c0-4.823-3.91-8.733-8.733-8.733h-10.718c-4.823,0-8.733,3.91-8.733,8.733v0
	c0,1.121,0.213,2.191,0.598,3.176h-9.412c-4.823,0-8.733,3.91-8.733,8.733v0C140.023,117.9,143.933,121.81,148.756,121.81z
	 M410.865,130.623c0,2.271,1.841,4.113,4.113,4.113c2.271,0,4.113-1.841,4.113-4.113c0-2.271-1.841-4.113-4.113-4.113
	C412.707,126.51,410.865,128.352,410.865,130.623z M414.311,117.11h40.373c4.823,0,8.733-3.91,8.733-8.733v0
	c0-4.823-3.91-8.733-8.733-8.733h-3.972c0.385-0.985,0.598-2.055,0.598-3.176v0c0-4.823-3.91-8.733-8.733-8.733h-10.718
	c-4.823,0-8.733,3.91-8.733,8.733v0c0,1.121,0.213,2.191,0.598,3.176h-9.412c-4.823,0-8.733,3.91-8.733,8.733v0
	C405.578,113.2,409.488,117.11,414.311,117.11z M495.467,467.56c-10.183,0-20.367,0-30.551,0c-5.67,0-5.68,8.813,0,8.813
	c10.184,0,20.367,0,30.551,0C501.137,476.373,501.147,467.56,495.467,467.56z M184.18,356.49L184.18,356.49v-29.05l-5.203,26.265h0
	L184.18,356.49z M184.18,327.439L184.18,327.439v9.684V327.439z M253.722,362.386v-25.191l-4.512,22.776L253.722,362.386z
	 M568.318,397.156c-0.67-0.172-1.355-0.343-2.041-0.514c-5.523-1.376-11.534-2.722-17.808-4.004
	c-2.026-0.414-4.073-0.821-6.144-1.22c-0.644-0.124-1.292-0.246-1.94-0.369c-1.475-0.279-2.957-0.554-4.445-0.824
	c-0.416-0.076-0.831-0.152-1.248-0.227c-0.909-0.163-1.818-0.324-2.73-0.483l2.73-3.365v-7.017h-5.423v9.914
	c-2.305-0.394-4.611-0.776-6.908-1.143c-0.648-0.104-1.293-0.205-1.94-0.306c-1.488-0.234-2.97-0.461-4.445-0.682
	c-0.416-0.062-1.527-0.229-1.666-0.249l0.419-0.516v-7.017h-5.423v6.818c-3.093-0.429-6.122-0.824-9.073-1.184
	c-3.983-0.486-7.81-0.906-11.41-1.247c-0.385-0.037-0.772-0.074-1.153-0.109c-0.462-0.042-0.911-0.08-1.365-0.12l1.365-2.489h-6.725
	v2.07c-0.465-0.031-0.922-0.061-1.375-0.088c-0.056-0.003-0.115-0.008-0.17-0.011c-3.114-0.189-5.95-0.295-8.408-0.3
	c-1.427-0.003-2.839,0.041-4.252,0.084c-0.825,0.025-1.65,0.05-2.471,0.089c-1.899,0.091-3.786,0.219-5.663,0.381
	c-0.532,0.046-1.059,0.104-1.589,0.155c-1.178,0.114-2.358,0.223-3.529,0.361l3.529-4.349v-8.94h-6.908v13.728
	c-3.848,0.523-7.664,1.148-11.454,1.847c-3.87,0.714-7.72,1.49-11.559,2.294c-2.305,0.483-4.607,0.971-6.908,1.459
	c-0.405,0.086-0.81,0.171-1.215,0.256c-11.84,2.504-23.699,4.896-36.007,5.779c-0.274,0.02-0.554,0.033-0.829,0.052
	c-17.969,1.227-37.578,0.539-57.169-2.222c-4.517-0.636-9.03-1.387-13.524-2.246c-0.455-0.087-0.911-0.173-1.366-0.262
	c-2.121-0.417-6.706-1.393-6.886-1.432l6.886-12.555h-7.971v12.321c-0.543-0.118-1.086-0.236-1.629-0.351
	c-0.82-0.174-1.639-0.345-2.459-0.513c-3.655-0.75-7.306-1.44-10.959-2.062c-3.18-0.542-6.361-1.037-9.546-1.474
	c-4.506-0.618-9.021-1.125-13.552-1.51c-0.37-0.032-0.742-0.055-1.112-0.085c0,0-6.077-0.432-9.129-0.563
	c-2.981-0.127-5.973-0.198-8.976-0.21c-3.974-0.016-7.968,0.064-11.991,0.264c-0.006,0-0.012,0-0.017,0.001
	c-0.678,0.034-1.348,0.099-2.023,0.146c-6.794,0.469-13.425,1.544-19.973,2.9c-0.68,0.141-1.362,0.279-2.041,0.425
	c-4.122,0.888-8.218,1.863-12.307,2.843l0,0c-4.068,0.975-8.133,1.941-12.212,2.83c-4.389,0.956-8.801,1.803-13.258,2.447
	c-4.051,0.586-8.136,1.016-12.285,1.171c-0.198,0.007-0.389,0.013-0.585,0.02c-3.038,0.109-5.958,0.179-8.767,0.214
	c-17.169,0.211-30.195-0.904-40.731-2.574c-1.979-0.314-3.871-0.646-5.685-0.994c-3.903-0.748-7.454-1.562-10.754-2.392
	c-4.94-1.243-9.326-2.521-13.524-3.664c-0.458-0.125-0.912-0.247-1.366-0.368c-1.427-0.381-2.838-0.745-4.246-1.082l4.246-7.741
	h-7.971v6.912c-0.541-0.11-1.084-0.216-1.629-0.317c-0.813-0.15-1.632-0.29-2.459-0.417c-3.448-0.53-7.034-0.844-10.959-0.852
	c-0.047,0-0.093-0.001-0.141-0.001c-3.117,0-6.364,0.453-9.626,1.236c-4.908,1.177-9.848,3.109-14.436,5.401
	c-0.688,0.344-1.37,0.694-2.041,1.053c-3.641,1.947-7.002,4.091-9.884,6.223c1.464,4.152,3.014,8.262,4.655,12.326h168.169
	c5.357-7.138,13.887-11.759,23.499-11.759c9.614,0,18.149,4.62,23.508,11.759h334.63c1.233-3.055,2.432-6.128,3.566-9.233
	C573.665,398.57,571.063,397.86,568.318,397.156z M555.98,327.439c1.622,0,2.938-1.315,2.938-2.938c0-1.622-1.315-2.938-2.938-2.938
	c-1.623,0-2.938,1.315-2.938,2.938C553.043,326.124,554.358,327.439,555.98,327.439z M448.466,467.56c-5.671,0-5.68,8.813,0,8.813
	C454.137,476.373,454.146,467.56,448.466,467.56z M192.312,215.812c0,2.596,2.104,4.7,4.7,4.7c2.596,0,4.7-2.104,4.7-4.7
	c0-2.596-2.104-4.7-4.7-4.7C194.416,211.112,192.312,213.216,192.312,215.812z M131.211,169.986c1.298,0,2.35-1.052,2.35-2.35
	s-1.052-2.35-2.35-2.35c-1.298,0-2.35,1.052-2.35,2.35S129.913,169.986,131.211,169.986z M60.122,252.238
	c1.622,0,2.938-1.315,2.938-2.938c0-1.622-1.315-2.938-2.938-2.938c-1.622,0-2.938,1.315-2.938,2.938
	C57.184,250.922,58.5,252.238,60.122,252.238z M171.161,145.311c0-1.947-1.578-3.525-3.525-3.525s-3.525,1.578-3.525,3.525
	c0,1.947,1.578,3.525,3.525,3.525S171.161,147.258,171.161,145.311z M508.802,248.736l-10.78,54.414l10.78,5.768V248.736z
	 M485.205,335.926l19.482,31.306h1.427v8.24c0,0.487,0.395,0.881,0.881,0.881h0.312c0.487,0,0.881-0.395,0.881-0.881v-8.24h15.79
	v9.812c0,0.446,0.465,0.807,1.037,0.807c0.573,0,1.037-0.362,1.037-0.807v-9.812h7.491v6.124c0,0.955,0.774,1.729,1.729,1.729
	s1.729-0.774,1.729-1.729v-6.124h3.458v5.589c0,0.487,0.395,0.881,0.881,0.881h0.312c0.487,0,0.881-0.395,0.881-0.881v-5.589h10.675
	l-19.482-31.306c-0.329-0.529-0.907-0.85-1.53-0.85h-48.522C484.298,335.077,484.876,335.398,485.205,335.926z M454.252,267.886
	l0.005-74.791l-0.001,0.002l-0.001,0.002l-42.106,70.146v0l7.322,4.642l17.391-11.233L454.252,267.886z M331.71,172.445
	c-1.499,0-2.929,0.283-4.256,0.777c-4.651,1.73-7.971,6.196-7.971,11.45c0,6.753,5.474,12.227,12.227,12.227h9.956h85.094
	c6.753,0,12.227-5.474,12.227-12.227c0-6.753-5.474-12.227-12.227-12.227h-5.561c0.538-1.379,0.837-2.877,0.837-4.446v0
	c0-6.753-5.474-12.227-12.227-12.227h-34.134c-6.753,0-12.227,5.474-12.227,12.227v0c0,1.569,0.299,3.067,0.837,4.446H331.71z
	 M279.263,226.975c0-1.622-1.315-2.938-2.938-2.938c-1.622,0-2.938,1.315-2.938,2.938c0,1.622,1.315,2.938,2.938,2.938
	C277.948,229.912,279.263,228.597,279.263,226.975z M231.087,289.838c0,2.596,2.104,4.7,4.7,4.7c2.596,0,4.7-2.104,4.7-4.7
	c0-2.596-2.104-4.7-4.7-4.7C233.191,285.138,231.087,287.242,231.087,289.838z M459.754,281.613h-61.815
	c-0.793,0-1.53,0.409-1.949,1.083l-24.819,39.883h0l0,0h9.396v17.053c0,0.73,0.591,1.322,1.321,1.322s1.322-0.592,1.322-1.322
	v-17.053h22.612v8.83c0,0.73,0.592,1.322,1.322,1.322s1.321-0.592,1.321-1.322v-8.83h21.144v10.299c0,0.73,0.592,1.322,1.322,1.322
	c0.73,0,1.321-0.592,1.321-1.322v-10.299h0.736l10.423-16.75v4.73c0,0.393,0.179,0.736,0.452,0.978
	c0.233,0.207,0.533,0.344,0.87,0.344c0.73,0,1.321-0.592,1.321-1.321v-8.978l11.753-18.886
	C458.224,282.022,458.961,281.613,459.754,281.613z M275.282,205.237l22.351,14.436l0.006-96.123l-0.001,0.002l-0.001,0.002
	l-21.2,35.318l-12.314,20.513l-20.602,34.322l9.41,5.965L275.282,205.237z M508.802,248.734L508.802,248.734L508.802,248.734
	L508.802,248.734L508.802,248.734z"></path>
<path id="color_x5F_2_2_" fill="#4CA5AE" d="M184.18,327.44L184.18,327.44v-0.001V327.44l0-0.001L184.18,327.44l0-0.001
	l12.212,61.646c4.09-0.98,8.185-1.955,12.307-2.843c0-2.325,0-4.65,0-6.975c-7.036-0.524-12.585-6.384-12.585-13.554
	c0-7.514,6.091-13.605,13.605-13.605c1.409,0,2.768,0.214,4.046,0.612c0.852,0.265,1.668,0.611,2.439,1.03
	c0.386,0.21,0.76,0.437,1.122,0.682c0.724,0.489,1.398,1.046,2.013,1.661c0.035,0.035,0.065,0.074,0.099,0.109
	c2.178-4.61,6.857-7.808,12.294-7.808c0.912,0,1.801,0.093,2.662,0.264l0.001-0.003l0.002,0.004c0.469,0.093,0.93,0.207,1.381,0.347
	c0.852,0.265,1.668,0.612,2.439,1.03c0.385,0.21,0.76,0.437,1.122,0.682c0.724,0.489,1.398,1.046,2.014,1.661
	c0.308,0.308,0.601,0.63,0.878,0.966c0.554,0.672,1.046,1.398,1.465,2.169c1.047,1.928,1.642,4.137,1.642,6.485
	c0,1.364-0.206,2.678-0.579,3.92l0.002,0.003l-0.003,0c-0.27,0.896-0.624,1.755-1.062,2.562c-0.419,0.771-0.91,1.497-1.465,2.169
	c-0.277,0.336-0.571,0.659-0.878,0.966c-0.616,0.616-1.29,1.172-2.014,1.661c-0.362,0.244-0.736,0.472-1.122,0.681
	c-0.771,0.419-1.587,0.765-2.439,1.03c-0.966,0.3-1.981,0.483-3.026,0.56c0,2.406,0,4.811,0,7.217
	c4.023-0.201,8.017-0.28,11.991-0.264l8.976-45.311v-0.001v0v0l0,0l0,0l9.129,46.084c0.371,0.03,0.742,0.054,1.112,0.085
	l13.552-68.41v-0.001v-0.001l0,0v0l0,0l7.605,38.39l18.408-29.58c0.39-0.626,1.075-1.007,1.813-1.007c0,0,0,0,0.001,0h33.695
	l-0.001-0.001v-5.574h-1.554v0v-4.508v0h7.194v0h0.19h7.457h1.554v4.508h-1.554v5.575h10.528c0.738,0,1.423,0.381,1.813,1.007
	l12.543,20.156v-18.088h-4.276l-1.762-3.251h0l23.381-37.571l-42.746-71.212l-9.022,5.856l-22.799-14.415l-22.349,14.434v0.145
	L232.785,345.97l-49.618-82.657l-7.02,4.557l-17.74-11.216l-17.389,11.231v0.113l-23.906,46.504v2.677h-1.554v5.575h14.44
	c0.738,0,1.423,0.381,1.813,1.007l17.102,27.483l9.138-46.129v-0.001v-0.001v0l0,0v0l0,0l15.275,77.107L184.18,327.44z
	 M346.239,310.842c-2.84,0-2.835-4.406,0-4.406C349.079,306.435,349.075,310.842,346.239,310.842z M357.941,297.28
	c-2.84,0-2.835-4.406,0-4.406C360.78,292.874,360.776,297.28,357.941,297.28z M343.449,285.824c3.786,0,7.572,0,11.358,0
	c2.84,0,2.835,4.406,0,4.406c-1.338,0-2.676,0-4.015,0c-2.007,0-1.909,2.644,0,2.644c0.31,0,0.62,0,0.93,0
	c2.84,0,2.835,4.406,0,4.406c-3.084,0-4.064,0-7.148,0c-2.644,0-2.35,3.427,0,3.427c1.371,0,0.637,0,2.007,0
	c2.84,0,2.835,4.406,0,4.406c-3.231,0-6.463,0-9.694,0c-2.84,0-2.982-4.406-0.147-4.406c1.322,0,2.448-0.147,2.448-1.714
	c0-1.469-1.028-1.714-2.448-1.714c-1.338,0-1.354,0-2.693,0c-2.84,0-2.835-4.406,0-4.406c4.113,0,6.756,0,10.869,0
	c1.518,0,1.518-2.644,0-2.644c-0.979,0-0.49,0-1.469,0C340.608,290.23,340.613,285.824,343.449,285.824z M336.79,290.23
	c-2.84,0-2.835-4.406,0-4.406C339.63,285.824,339.625,290.23,336.79,290.23z M332.726,236.962c2.271,0,4.113,1.841,4.113,4.113
	c0,2.271-1.841,4.113-4.113,4.113c-2.271,0-4.113-1.841-4.113-4.113C328.614,238.803,330.455,236.962,332.726,236.962z
	 M302.176,303.939c2.271,0,4.113,1.841,4.113,4.113c0,2.271-1.841,4.113-4.113,4.113c-2.271,0-4.113-1.841-4.113-4.113
	C298.063,305.78,299.905,303.939,302.176,303.939z M286.901,275.738c1.622,0,2.938,1.315,2.938,2.938
	c0,1.622-1.315,2.938-2.938,2.938c-1.622,0-2.938-1.315-2.938-2.938C283.963,277.053,285.278,275.738,286.901,275.738z
	 M208.174,327.439c1.622,0,2.938,1.315,2.938,2.938c0,1.622-1.315,2.938-2.938,2.938c-1.622,0-2.938-1.315-2.938-2.938
	C205.237,328.754,206.552,327.439,208.174,327.439z M164.699,287.488c-1.622,0-2.938-1.315-2.938-2.938
	c0-1.622,1.315-2.938,2.938-2.938c1.622,0,2.938,1.315,2.938,2.938C167.636,286.173,166.321,287.488,164.699,287.488z
	 M305.081,326.361l1.61,2.593l-19.629,31.908v0.01v3.011l-4.284-0.022l1.781-2.995L305.081,326.361z M523.956,325.225l-4.734-23.899
	l7.119,11.86L523.956,325.225z M349.764,423.007H566.23c2.227-4.764,4.333-9.594,6.31-14.492H272.8
	c-13.303,0-24.088,10.784-24.088,24.088c0,13.303,10.785,24.088,24.088,24.088h117.502c12.654,0,22.913,10.258,22.913,22.913v0
	c0,4.994-1.616,9.601-4.328,13.366l7.533,27.173h9.916c9.41,0,17.038,7.628,17.038,17.038l0,0c0,9.41-7.628,17.038-17.038,17.038
	h-68.151c-9.41,0-17.038-7.628-17.038-17.038l0,0c0-9.41,7.628-17.038,17.038-17.038h9.199l4.886-17.625H185.261
	c-10.383,0-18.8,8.417-18.8,18.8l0,0c0,10.383,8.417,18.8,18.8,18.8h103.402c8.507,0,15.172,6.961,15.276,15.467
	c0.103,8.348,6.902,15.084,15.274,15.084h93.878c60.698-25.699,111.037-71.056,143.076-128.077H349.764
	c-5.408,0-9.792-4.384-9.792-9.792l0,0C339.973,427.391,344.357,423.007,349.764,423.007z M464.916,467.56
	c10.184,0,20.367,0,30.551,0c5.68,0,5.67,8.813,0,8.813c-10.183,0-20.367,0-30.551,0C459.236,476.373,459.246,467.56,464.916,467.56
	z M448.466,467.56c5.68,0,5.671,8.813,0,8.813C442.786,476.373,442.796,467.56,448.466,467.56z M483.455,338.12l1.358,2.188
	l-5.411,8.796v-4.17L483.455,338.12z M459.754,281.613c0.793,0,1.53,0.409,1.949,1.083l24.819,39.883l0,0l-2.515,3.219l-1.915-3.219
	l-22.057-37.088l-1.731,2.788l21.098,34.296v3.224v3.408v11.128c0,0,2.923-4.659,3.033-4.764c0.331-0.313,0.773-0.494,1.24-0.494
	h8.022l11.857-59.851l-7.151-11.913l-7.02,4.557l-17.74-11.216l-17.389,11.231v0.113l-6.999,13.615L459.754,281.613
	C459.754,281.613,459.754,281.613,459.754,281.613z M473.729,268.688c1.622,0,2.938,1.315,2.938,2.938
	c0,1.622-1.315,2.938-2.938,2.938c-1.622,0-2.938-1.315-2.938-2.938C470.791,270.003,472.107,268.688,473.729,268.688z
	 M222.014,371.51c2.246,2.296,5.298,3.79,8.699,4.043c0,2.454,0,4.909,0,7.364c-6.794,0.469-13.425,1.544-19.973,2.9
	c0-2.183,0-4.367,0-6.55c1.045-0.078,2.06-0.26,3.025-0.56c0.852-0.265,1.668-0.612,2.439-1.03c0.386-0.21,0.76-0.437,1.122-0.682
	c0.724-0.489,1.398-1.046,2.013-1.661c0.308-0.308,0.601-0.63,0.878-0.966c0.554-0.672,1.046-1.398,1.465-2.169
	C221.804,371.975,221.906,371.74,222.014,371.51z M72.226,326.361l1.61,2.593l-19.629,31.908l-0.003,0.004l0.003,0.006v3.012
	l-4.284-0.022L72.226,326.361z"></path>
<path id="color_x5F_1_2_" fill="#7BCED2" d="M460.035,285.49l-13.983,22.518v-6.426l11.753-18.886
	c0.419-0.673,1.156-1.082,1.948-1.083c0,0,0,0,0.001,0c0.793,0,1.53,0.409,1.949,1.083l24.819,39.883l0,0l-2.515,3.219
	L460.035,285.49z M594,297.638c0,33.601-5.602,65.891-15.905,96l-1.312-6.623c2.539-2.471,4.12-5.921,4.12-9.743
	c0-5.726-3.542-10.617-8.551-12.625l-28.102-141.859l0,0.001l0-0.001l0,0.001v0v0.001v0.001l-17.907,90.393l-7.121-11.864
	l-10.418-52.587l0,0.001v0l0,0v0.001v0.001l-5.247,26.487l-24.872-41.435h51.751c4.05,0,7.333-3.283,7.333-7.333
	s-3.283-7.333-7.333-7.333h-3.336c0.323-0.827,0.502-1.725,0.502-2.667l0,0c0-4.05-3.284-7.333-7.333-7.333h-20.473
	c-4.05,0-7.333,3.283-7.333,7.333l0,0c0,0.941,0.179,1.84,0.503,2.667h-19.539c-1.118,0-2.174,0.258-3.122,0.705l-16.046-26.731
	l-0.001,0.002l-0.001-0.002v0.003l-53.132,88.515h-3.183c-0.793,0-1.53,0.409-1.949,1.083l-1.437,2.309l-52.888-88.107h85.094
	c6.753,0,12.227-5.474,12.227-12.227c0-6.753-5.474-12.227-12.227-12.227h-5.561c0.538-1.379,0.837-2.877,0.837-4.446v0
	c0-6.753-5.474-12.227-12.227-12.227h-34.134c-6.753,0-12.227,5.474-12.227,12.227v0c0,1.569,0.299,3.067,0.837,4.446H331.71
	c-1.499,0-2.929,0.283-4.256,0.777l-29.815-49.671l-0.001,0.002l-0.001-0.002v0.004l-21.2,35.318h-25.357
	c0.452-1.156,0.702-2.413,0.702-3.73l0,0c0-5.665-4.592-10.257-10.257-10.257H212.89c-5.665,0-10.257,4.592-10.257,10.257l0,0
	c0,1.316,0.251,2.573,0.702,3.73h-4.665c-5.665,0-10.257,4.592-10.257,10.257c0,5.665,4.592,10.257,10.257,10.257h65.451
	l-29.369,48.927h-18.338c-5.665,0-10.257,4.592-10.257,10.257l0,0c0,1.316,0.251,2.573,0.702,3.73h-4.665
	c-5.665,0-10.257,4.592-10.257,10.257c0,5.665,4.592,10.257,10.257,10.257h11.848l-15.587,25.967l-57.436-95.685l0,0l0,0
	l-0.001,0.002l-0.001-0.002v0.003l-10.49,17.476h-0.139c0.452-1.156,0.702-2.413,0.702-3.73v0c0-5.664-4.592-10.257-10.257-10.257
	H92.201c-5.665,0-10.257,4.592-10.257,10.257v0c0,1.316,0.251,2.573,0.702,3.73H55.319c-5.665,0-10.257,4.592-10.257,10.257
	s4.592,10.257,10.257,10.257h62.896l-46.333,77.187l-4.816-24.311l0,0v0l0,0v0l0,0l0,0v0.001v0.001l-8.284,41.814h0l-0.061,0.306
	L44.441,254l0,0.001V254l0,0.001l0-0.001v0v0v0.002L23.853,357.927c-4.969,2.026-8.474,6.899-8.474,12.596
	c0,3.793,1.555,7.22,4.059,9.688l-2.515,12.695c-10.144-29.899-15.647-61.94-15.647-95.268
	c0-163.676,132.686-296.362,296.362-296.362S594,133.961,594,297.638z M57.184,249.3c0,1.622,1.315,2.938,2.938,2.938
	c1.622,0,2.938-1.315,2.938-2.938c0-1.622-1.315-2.938-2.938-2.938C58.5,246.363,57.184,247.678,57.184,249.3z M192.312,215.812
	c0,2.596,2.104,4.7,4.7,4.7c2.596,0,4.7-2.104,4.7-4.7c0-2.596-2.104-4.7-4.7-4.7C194.416,211.112,192.312,213.216,192.312,215.812z
	 M133.561,167.636c0-1.298-1.052-2.35-2.35-2.35c-1.298,0-2.35,1.052-2.35,2.35s1.052,2.35,2.35,2.35
	C132.508,169.986,133.561,168.934,133.561,167.636z M171.161,145.311c0-1.947-1.578-3.525-3.525-3.525s-3.525,1.578-3.525,3.525
	c0,1.947,1.578,3.525,3.525,3.525S171.161,147.258,171.161,145.311z M197.863,113.077c0-4.823-3.91-8.733-8.733-8.733h-3.972
	c0.385-0.985,0.598-2.055,0.598-3.176v0c0-4.823-3.91-8.733-8.733-8.733h-10.718c-4.823,0-8.733,3.91-8.733,8.733v0
	c0,1.121,0.213,2.191,0.598,3.176h-9.412c-4.823,0-8.733,3.91-8.733,8.733v0c0,4.823,3.91,8.733,8.733,8.733h40.373
	C193.953,121.81,197.863,117.9,197.863,113.077L197.863,113.077z M292.188,95.372c0-2.271-1.841-4.112-4.113-4.112
	s-4.113,1.841-4.113,4.112s1.841,4.113,4.113,4.113S292.188,97.644,292.188,95.372z M340.364,131.211
	c0-1.947-1.578-3.525-3.525-3.525c-1.947,0-3.525,1.578-3.525,3.525c0,1.947,1.578,3.525,3.525,3.525
	C338.786,134.736,340.364,133.157,340.364,131.211z M348.265,68.426c0-4.823-3.91-8.733-8.733-8.733h-21.163
	c0.385-0.985,0.598-2.055,0.598-3.176v0c0-4.823-3.91-8.733-8.733-8.733h-10.718c-4.823,0-8.733,3.91-8.733,8.733v0
	c0,1.121,0.214,2.191,0.598,3.176h-3.972c-4.823,0-8.733,3.91-8.733,8.733v0c0,4.823,3.91,8.733,8.733,8.733h52.123
	C344.355,77.16,348.265,73.25,348.265,68.426L348.265,68.426z M386.19,226.975c0-2.271-1.841-4.113-4.112-4.113
	s-4.113,1.841-4.113,4.113c0,2.271,1.841,4.113,4.113,4.113S386.19,229.246,386.19,226.975z M419.091,130.623
	c0-2.271-1.841-4.113-4.113-4.113c-2.271,0-4.113,1.841-4.113,4.113c0,2.271,1.841,4.113,4.113,4.113
	C417.249,134.736,419.091,132.894,419.091,130.623z M463.417,108.377c0-4.823-3.91-8.733-8.733-8.733h-3.972
	c0.385-0.985,0.598-2.055,0.598-3.176v0c0-4.823-3.91-8.733-8.733-8.733h-10.718c-4.823,0-8.733,3.91-8.733,8.733v0
	c0,1.121,0.213,2.191,0.598,3.176h-9.412c-4.823,0-8.733,3.91-8.733,8.733v0c0,4.823,3.91,8.733,8.733,8.733h40.373
	C459.507,117.11,463.417,113.2,463.417,108.377L463.417,108.377z M474.316,162.349c0-1.622-1.315-2.938-2.938-2.938
	c-1.622,0-2.938,1.315-2.938,2.938c0,1.622,1.315,2.938,2.938,2.938C473.001,165.286,474.316,163.971,474.316,162.349z
	 M513.092,191.137c0-1.947-1.578-3.525-3.525-3.525c-1.947,0-3.525,1.578-3.525,3.525c0,1.947,1.578,3.525,3.525,3.525
	C511.514,194.662,513.092,193.083,513.092,191.137z M413.215,479.604L413.215,479.604c0,4.994-1.616,9.601-4.328,13.366
	l-5.822-21.003l0,0v0l0,0l0,0v0.001v0.001L396,497.449l-11.163-40.266l0,0v0l0,0v0.001v0.001l-0.28,1.012l-12.287,44.321H185.261
	c-10.383,0-18.8,8.417-18.8,18.8l0,0c0,10.383,8.417,18.8,18.8,18.8h103.402c8.507,0,15.172,6.961,15.276,15.467
	c0.103,8.348,6.902,15.084,15.274,15.084h93.878C377.61,585.691,338.594,594,297.638,594c-89.895,0-170.435-40.032-224.785-103.233
	h35.054c9.41,0,17.038-7.628,17.038-17.038v0c0-9.41-7.628-17.038-17.038-17.038H47.539c-9.67-15.174-17.987-31.291-24.804-48.176
	h168.169c-1.765,2.351-3.187,4.974-4.188,7.797c-0.043-0.015-0.088-0.025-0.132-0.039c-0.503-0.166-1.011-0.319-1.529-0.45
	c-0.095-0.024-0.192-0.044-0.287-0.067c-0.489-0.117-0.981-0.227-1.482-0.312c-0.222-0.038-0.449-0.062-0.673-0.093
	c-0.39-0.054-0.777-0.115-1.174-0.149c-0.645-0.055-1.295-0.089-1.954-0.089c-12.513,0-22.657,10.144-22.657,22.657
	c0,7.912,4.062,14.868,10.208,18.921h-0.808c-9.41,0-17.038,7.628-17.038,17.038v0c0,9.41,7.628,17.038,17.038,17.038h68.151
	c9.41,0,17.038-7.628,17.038-17.038v0c0-9.41-7.628-17.038-17.038-17.038h-17.772c0-0.425,0-0.85,0-1.275
	c15.193-1.128,27.172-13.803,27.172-29.285c0-6.609-2.184-12.708-5.868-17.616h34.89c-13.303,0-24.088,10.784-24.088,24.088
	c0,13.303,10.785,24.088,24.088,24.088h117.502C402.957,456.691,413.215,466.949,413.215,479.604z M119.46,426.434
	c-10.184,0-20.367,0-30.551,0c-5.67,0-5.68,8.813,0,8.813c10.184,0,20.367,0,30.551,0
	C125.131,435.247,125.14,426.434,119.46,426.434z M241.663,564.352c10.184,0,20.367,0,30.551,0c8.506,0,8.52-13.219,0-13.219
	c-10.184,0-20.367,0-30.551,0C233.157,551.133,233.143,564.352,241.663,564.352z M219.337,564.352c8.506,0,8.52-13.219,0-13.219
	C210.831,551.133,210.817,564.352,219.337,564.352z M275.738,467.707c-8.506,0-8.52,13.219,0,13.219
	C284.244,480.926,284.258,467.707,275.738,467.707z M198.151,450.601c-0.141,0.204-0.293,0.4-0.44,0.6
	c-0.067,0.091-0.132,0.183-0.2,0.273c-0.366,0.482-0.751,0.949-1.154,1.4c-0.082,0.092-0.169,0.18-0.252,0.27
	c-0.348,0.377-0.709,0.741-1.082,1.094c-0.097,0.092-0.191,0.186-0.29,0.276c-0.433,0.396-0.883,0.773-1.346,1.134
	c-0.12,0.094-0.243,0.182-0.365,0.274c-0.357,0.267-0.723,0.524-1.096,0.77H212.2c0-0.422,0-0.844,0-1.267
	C207.029,455.04,202.232,453.316,198.151,450.601z M72.226,326.361l1.61,2.593l18.279,29.437l3.415,5.5l1.861-3.024l-23.091-37.106
	c-0.39-0.626-1.075-1.007-1.813-1.007l0,0c-0.738,0-1.423,0.381-1.813,1.007l-3.609,5.8l-0.304,0.489l-5.503,8.843l0,0.001
	l-13.674,21.973l2.34,2.995l1.781-2.995L72.226,326.361z M483.675,335.077c-0.467,0-0.909,0.181-1.24,0.494
	c-0.11,0.104-0.208,0.224-0.29,0.356l-2.743,4.408v4.599l4.052-6.814l1.358,2.188l18.303,29.476l1.57-2.552l-19.482-31.306
	C484.876,335.398,484.298,335.077,483.675,335.077z M443.41,305.829l-10.423,16.75l2,3.251l3.671-5.912l5.204-8.38
	c-0.272-0.242-0.452-0.585-0.452-0.978V305.829z M330.246,360.867l-7.462-11.99v5.995l5.601,9.02L330.246,360.867z M305.081,326.361
	l6.092,9.811v-5.955l-4.018-6.456c-0.39-0.626-1.075-1.007-1.813-1.007c0,0-0.001,0-0.001,0c-0.738,0-1.423,0.381-1.813,1.007
	l-23.091,37.106l2.34,2.995L305.081,326.361z M313.632,334.169v5.963l6.694,10.78v-5.987L313.632,334.169z"></path>
</svg>